<svg xmlns="http://www.w3.org/2000/svg" xmlns:xlink="http://www.w3.org/1999/xlink" viewBox="0 0 1138.67 2436"><defs><style>.a{fill:none;}.b{fill:#fff;}.c{fill:#231f20;}.d{opacity:0.22;fill:url(#a);}</style><pattern id="a" width="191.89" height="191.89" patternTransform="translate(-144.47 -1396.49) scale(3.42)" patternUnits="userSpaceOnUse" viewBox="0 0 191.89 191.89"><rect class="a" width="191.89" height="191.89"/><rect class="b" width="191.89" height="191.89"/><path class="c" d="M184.83,85.05c-.38.19-.11.85.28.69,2.21-.93,4.39-1.89,6.63-2.73l.15-.06V82l-.55.22C189.15,83.1,187,84,184.83,85.05Z"/><path class="c" d="M187.42,90a6.12,6.12,0,0,0,1.44-.43l1.41-.53,1.62-.64v-1l-1.88.8-1.38.62a6.38,6.38,0,0,0-1.39.74A.26.26,0,0,0,187.42,90Z"/><path class="c" d="M191.89,137.73a1.78,1.78,0,0,1-.69,0,2.75,2.75,0,0,1-1.61-1.27l-3-3.84a.49.49,0,0,1-.11-.31,1.55,1.55,0,0,1-.47-.39,9.28,9.28,0,0,1-1.34-2.8c-.18-.5-.35-1-.53-1.52a11,11,0,0,0-.46-1.19q-2.15-4.8-4.21-9.65-4.11-9.69-7.87-19.52t-7-19.7a.66.66,0,0,1,.3-.75l.32-.14,1-.43.32-.14.23-.09.11-.05.88-.37L171.64,74c3.59-1.47,7.18-2.91,10.77-4.37,3.15-1.28,6.32-2.54,9.48-3.8v1.37q-5.41,2.14-10.82,4.32-5.1,2.06-10.18,4.18l-1.91.8-.47.19h0l-.09,0-.18.08-.75.32c-.48.21-1,.41-1.45.63.47,1.38.94,2.76,1.42,4.13q3.38,9.75,7.11,19.37t7.89,19.14c1.11,2.54,2.35,5,3.26,7.66a13.28,13.28,0,0,0,1.16,2.78,1.25,1.25,0,0,0,.27.35h.05a3.25,3.25,0,0,0,1.1-.2,27.68,27.68,0,0,0,2.78-1.1l.82-.34V131l-.55.21a20.17,20.17,0,0,1-3,1.15l-.44.09q1.42,1.77,2.88,3.52c.19.23.4.54.74.54a1.59,1.59,0,0,0,.37-.06Zm-4.75-6.55h0Z"/><path class="c" d="M191.83,133.15h.06v-.27l-.12.07A.11.11,0,0,0,191.83,133.15Z"/><path class="c" d="M191.54,76.72c-1,.39-2,.79-2.95,1.21a90.42,90.42,0,0,0-8.9,4.36.48.48,0,0,0-.21.54c1.53,4.38,3.2,8.71,5.16,12.92a.48.48,0,0,0,.65.17l6.6-3.08v-1c-2.2,1-4.41,2-6.61,3a105.11,105.11,0,0,1-4.77-12c2.77-1.46,5.55-2.87,8.41-4.14,1-.44,2-.86,3-1.27V76.42l-.1,0A.43.43,0,0,0,191.54,76.72Z"/><path class="c" d="M60.28,191.89c.7-2.31,1.42-4.61,2.19-6.89,1.55-4.61,3.21-9.19,5.12-13.66a3.65,3.65,0,0,1,.75-1.19.66.66,0,0,1,.21-.51,13.3,13.3,0,0,1,4.76-3.4,7.55,7.55,0,0,1,5.82.33,8.8,8.8,0,0,1,4.27,3.62,4.57,4.57,0,0,1,.16,4.12.67.67,0,0,1,.18.77c-1.19,3.34-2.31,6.71-3.41,10.08-.73,2.24-1.44,4.49-2.16,6.73H76.66q1.62-5,3.22-9.95a.58.58,0,0,1-.59.06c-2-.86-4-1.73-6.08-2.47-1-.36-2-.69-3-1a22.26,22.26,0,0,1-3.11-1,.36.36,0,0,1-.16-.14c-1.8,4.81-3.44,9.68-5,14.56ZM70.59,169.8c.67.14,1.34.39,2,.54q3.63.94,7.2,2.11h0l1.76.61c.35.13.69.26,1,.41.53-2.58-2.43-4.79-4.59-5.69a5.61,5.61,0,0,0-4.69.06A12.66,12.66,0,0,0,70.59,169.8Zm-2.1,3.56A29.59,29.59,0,0,1,75.1,175a49.3,49.3,0,0,1,6.06,2.86c.31-1,.62-1.95.92-2.92a.5.5,0,0,1,.06-.39.67.67,0,0,1,.06-.12c-.34-.08-.67-.16-1-.26l-1.77-.51h0q-3.76-1.1-7.58-2a12.92,12.92,0,0,0-1.92-.42c-.72,0-.78.46-1,1.06C68.75,172.68,68.62,173,68.49,173.36Zm-1.22,3.14.12,0a13.26,13.26,0,0,1,3.21.7c1.08.3,2.14.66,3.2,1A41,41,0,0,1,79.86,181a.6.6,0,0,1,.23.25l.75-2.39c-3.78-2.43-8.34-3.72-12.7-4.64-.21.54-.43,1.07-.63,1.61Z"/><path class="c" d="M73.59,185.85c-.5,1.85-1.2,3.67-1.81,5.48-.06.19-.13.38-.19.56H68.43c.57-1.91,1.17-3.8,1.83-5.69-.55,1.19-1.09,2.51-1.37,3.23-.1.41-.19.81-.29,1.14s-.25.88-.38,1.32H65.63c.47-1.43,1-2.85,1.54-4.25.71-1.77,2.56-7.43,5.53-5.48C73.91,183,73.93,184.59,73.59,185.85Zm-.78-1.24a2.56,2.56,0,0,0,0-.39,2,2,0,0,0-.15-.45c-.06.16-.11.32-.17.47A1.23,1.23,0,0,1,72.81,184.61Z"/><path class="c" d="M111.17,191a4.78,4.78,0,0,1-1.06-4.32,7.89,7.89,0,0,1,2-4.1,7.38,7.38,0,0,1,1.82-1.42,2.47,2.47,0,0,1,1.69-.37,4.62,4.62,0,0,1,4.82,6.49,5.68,5.68,0,0,1-1.43,2,3.13,3.13,0,0,1-.66.65,13.62,13.62,0,0,1-2.51,1.39A4.25,4.25,0,0,1,111.17,191Zm1-3.72a3.08,3.08,0,0,0,1.42,2,3.57,3.57,0,0,0,2.9.12,4.53,4.53,0,0,0,3-3.37,3.38,3.38,0,0,0-1.55-3.52,3.45,3.45,0,0,0-4,.35,5.11,5.11,0,0,0-1.62,4.06A.49.49,0,0,1,112.16,187.24Zm0,3.12a3.56,3.56,0,0,0,2.42.4,3.5,3.5,0,0,1-2.12-1,4.14,4.14,0,0,1-1.06-2.41.58.58,0,0,1-.26-.45,6.42,6.42,0,0,1,0-.76,6.41,6.41,0,0,0-.16,1A3.4,3.4,0,0,0,112.12,190.36Z"/><path class="c" d="M90.88,191.89h.91c.07-.13.13-.27.19-.4a.56.56,0,0,0,.42-.28,30.4,30.4,0,0,1,12.23-11.16,33.48,33.48,0,0,1,3.18-1.42c-.61.33-1.22.68-1.81,1.05a38.28,38.28,0,0,0-10.47,9.42,24.11,24.11,0,0,0-1.8,2.79h1.12c.21-.37.42-.75.66-1.12a34.25,34.25,0,0,1,9.76-9.54,46.84,46.84,0,0,1,6.58-3.64q1-.43,2-.81c1.41-.37,2.84-.7,4.28-.95,3.73-.64,8.51-.89,11.21,2.31a6.26,6.26,0,0,1,1.28,6.13c-.77,2-2.57,3.58-4.07,5.08a23.78,23.78,0,0,0-2.28,2.54h1.71c.43-.5.88-1,1.34-1.46-.29.48-.56,1-.82,1.46h1.11c.53-1.1,1.15-2.16,1.79-3.21.28-.47.58-.94.88-1.42l.24-.3a7.17,7.17,0,0,0,1.38-6.6,8.38,8.38,0,0,0-4.22-5,13.1,13.1,0,0,0-6.22-1.08,34.63,34.63,0,0,0-6.63,1,54.9,54.9,0,0,0-6.79,2,33,33,0,0,0-14.15,9.84,29.85,29.85,0,0,0-2.48,3.53.51.51,0,0,0,0,.52C91.18,191.38,91,191.64,90.88,191.89Z"/><path class="c" d="M169.16,191.89c.56-3,1.13-6.07,1.67-9.1.44-2.45.85-5.65,3.22-7,1.41-.83,3.11-.56,4.66-.4s2.95.33,4.42.55c1.82-.54,3.41,1.06,3.77,2.75a11.08,11.08,0,0,1,0,3.4c-.14,1.21-.28,2.43-.43,3.64q-.37,3.1-.81,6.21h-1.13c.29-2,.58-4,.85-6,.06-.49.13-1,.19-1.47-1.29-.27-2.58-.5-3.88-.7-.09.89-.14,1.78-.28,2.67s-.29,2-.44,3-.27,1.72-.4,2.58h-1c.19-1.11.38-2.22.58-3.34.16-.86.31-1.73.47-2.6s.35-1.57.54-2.35c-.76-.11-1.51-.22-2.27-.3s-1.7-.17-2.55-.24c-.23,3-.58,5.9-1,8.83h-1c.4-3,.81-5.93,1.26-8.88-1.25-.1-2.5-.18-3.75-.3l-.51,2.94c-.35,2.08-.71,4.16-1.06,6.24ZM172,182a39.93,39.93,0,0,1,7.08.3q3.35.38,6.65,1.06l.09-.68a19.62,19.62,0,0,0,.27-3,3.69,3.69,0,0,0-.83-2.46,3.09,3.09,0,0,0-.81-.64.31.31,0,0,1-.3.16l-2.49-.28a47.55,47.55,0,0,0-5.05-.43,3.6,3.6,0,0,0-3.18,1.58,9.23,9.23,0,0,0-1.23,3.29C172.08,181.31,172,181.67,172,182Z"/><path class="c" d="M27.39,45.61C32.56,56.58,38.25,67.3,44,78c1.65,3.05,3.45,6,5,9.15a.57.57,0,0,0,.63.26A21.18,21.18,0,0,0,57.67,83a.68.68,0,0,0,.1-.81c-1.29-2.7-2.8-5.32-4.22-8s-2.89-5.4-4.34-8.09q-4.26-8-8.68-15.8c-1.69-3-3.36-6-5-9.09-.38-.71-1.48-.07-1.09.64,2.92,5.32,5.67,10.73,8.55,16.07s5.72,10.57,8.61,15.83c1.65,3,3.22,6.14,5,9.08,0-.27.07-.54.1-.81a18.49,18.49,0,0,1-7.42,4.28l.63.25c-1.46-2.63-2.7-5.4-4-8.1S43.12,73,41.74,70.2c-2.7-5.39-5.53-10.72-8.4-16-1.65-3-3.31-6.09-5-9.1-.34-.6-1.2-.07-.91.53Z"/><path class="c" d="M21.58,46.54A17.25,17.25,0,0,0,40.94,34,19,19,0,0,0,33,14a15.42,15.42,0,0,0-10.9-2.32,16.71,16.71,0,0,0-8.92,4.67A19.48,19.48,0,0,0,8.16,33,16,16,0,0,0,19.08,46a19.49,19.49,0,0,0,2.49.57c.73.12,1-1,.31-1.11A15.08,15.08,0,0,1,10.07,34.81a17.71,17.71,0,0,1,2.5-15.44c3.75-5.18,10.75-7.71,16.8-5.29,6.39,2.57,10.74,9.62,10.55,16.44-.25,9.13-9.33,16.08-18.2,14.93C21.11,45.37,21,46.42,21.58,46.54Z"/><path class="c" d="M22.45,41.34a12,12,0,0,0,13.63-8.69,13.34,13.34,0,0,0-5.5-14.16,11.2,11.2,0,0,0-14,1.59A13.73,13.73,0,0,0,13,31.83a11.23,11.23,0,0,0,9.43,9.54c.72.12,1-1,.31-1.12-8-1.45-10.81-11.31-6.38-17.58A9.79,9.79,0,0,1,27.68,19a12,12,0,0,1,7.24,11.1c-.13,6.22-6.34,10.85-12.33,10.18C22,40.19,21.84,41.22,22.45,41.34Z"/><path class="c" d="M31.29,51.63a24.53,24.53,0,0,0,3.59-1.88c.57-.33,1.13-.69,1.7-1s1.18-.7,1.72-1.11a.56.56,0,0,0,.22-.67.53.53,0,0,0-.63-.3,16.52,16.52,0,0,0-1.85.89c-.61.31-1.22.61-1.82.94a25.54,25.54,0,0,0-3.52,2.13c-.48.37,0,1.23.59,1Z"/><path class="c" d="M33.48,55.57a26.13,26.13,0,0,0,3.63-1.81q.86-.49,1.71-1a8.1,8.1,0,0,0,1.73-1.17c.4-.41,0-1.28-.61-1a10.26,10.26,0,0,0-1.79,1.08c-.54.34-1.08.68-1.64,1-1.14.67-2.33,1.27-3.44,2-.47.3-.18,1.17.41,1Z"/><path class="c" d="M45.9,79.19a33.69,33.69,0,0,0,3.66-1.82l3.59-2a.62.62,0,0,0-.62-1.07l-3.51,2a34.5,34.5,0,0,0-3.41,2.17c-.31.24-.15.88.29.7Z"/><path class="c" d="M47.55,82.9a34,34,0,0,0,3.67-2c1.18-.73,2.28-1.55,3.4-2.37a.65.65,0,1,0-.79-1,26.27,26.27,0,0,1-3.28,2.37c-1.16.72-2.35,1.39-3.57,2a.56.56,0,0,0-.2.77.58.58,0,0,0,.77.21Z"/><path class="c" d="M46.83,77.88c.12,1.56.23,3.11.42,4.66a.53.53,0,0,0,.51.52.51.51,0,0,0,.51-.52c-.15-1.59-.39-3.18-.62-4.77-.07-.46-.85-.36-.82.11Z"/><path class="c" d="M48.12,77.36l.18,2.1c.05.72.08,1.45.18,2.16a.52.52,0,0,0,.58.37.51.51,0,0,0,.45-.51c0-.69-.14-1.38-.21-2.06l-.22-2.06a.49.49,0,0,0-.48-.48.49.49,0,0,0-.48.48Z"/><path class="c" d="M49.77,75.92a11.08,11.08,0,0,0-.26,2.15c0,.36,0,.71,0,1.06a5.57,5.57,0,0,0,.13,1.16.55.55,0,0,0,1.08-.15c0-.36-.17-.7-.24-1.06s-.12-.67-.15-1A13.24,13.24,0,0,1,50.27,76a.25.25,0,0,0-.5-.06Z"/><path class="c" d="M50.37,75.83c0,.56.07,1.12.1,1.69,0,.28,0,.56,0,.84v.39a1.64,1.64,0,0,0,0,.54.57.57,0,0,0,.55.41.56.56,0,0,0,.54-.41,1.11,1.11,0,0,0,0-.36s0-.14,0-.18l0-.39c0-.28-.06-.56-.09-.84l-.16-1.69a.49.49,0,1,0-1,0Z"/><path class="c" d="M51.21,76l.09,1.58c0,.25,0,.51.05.77a2.54,2.54,0,0,0,0,.39,2.51,2.51,0,0,0,0,.27.66.66,0,0,0,.18.34l-.14-.23,0,.05a.51.51,0,0,0,1,0c0,.07,0,0,0-.11a.9.9,0,0,0,0-.18,1.41,1.41,0,0,0,0-.2,1.33,1.33,0,0,0,0-.28c0-.18,0,.11,0-.08s0-.52-.08-.77c0-.52-.1-1-.14-1.55a.54.54,0,0,0-.52-.52.53.53,0,0,0-.52.52Z"/><path class="c" d="M51.92,75.4l.47,1.32.22.63c.08.23.18.45.24.69a.58.58,0,1,0,1-.45c-.11-.21-.19-.44-.29-.66l-.26-.62L52.8,75a.48.48,0,0,0-.88.38Z"/><path class="c" d="M32.5,49.87a11.78,11.78,0,0,0,0,2.3c0,.75.05,1.51.15,2.26a.57.57,0,0,0,.55.55.55.55,0,0,0,.54-.55c0-.75,0-1.51,0-2.26,0-.38,0-.75-.07-1.13a7.48,7.48,0,0,0-.14-1.17c-.11-.46-.89-.5-1,0Z"/><path class="c" d="M34.13,49.43c0,.69-.05,1.38-.07,2.07l0,1a6.69,6.69,0,0,1,0,1,.56.56,0,1,0,1.07,0,7.64,7.64,0,0,1,0-1l0-1-.06-2.07a.4.4,0,0,0-.8,0Z"/><path class="c" d="M35,49.24l.17,1.82.09.91a6.54,6.54,0,0,0,.13,1,.57.57,0,0,0,1.12-.15,6.84,6.84,0,0,0-.09-.91L36.3,51c-.07-.59-.15-1.18-.22-1.78a.57.57,0,0,0-.55-.55.55.55,0,0,0-.55.55Z"/><path class="c" d="M36.63,48.67c0,.61-.07,1.22-.11,1.83q0,.45-.06.9a4.14,4.14,0,0,0,0,.93.59.59,0,0,0,.51.58.57.57,0,0,0,.64-.42,4.37,4.37,0,0,0,0-1c0-.31,0-.62,0-.93,0-.63,0-1.25,0-1.87a.52.52,0,0,0-.52-.52.53.53,0,0,0-.52.52Z"/><path class="c" d="M36.82,47.39c.12.69.25,1.38.38,2.07a7.57,7.57,0,0,0,.51,2.11.58.58,0,0,0,.65.26.61.61,0,0,0,.43-.56,3.94,3.94,0,0,0-.11-1.13c-.06-.34-.13-.69-.19-1-.12-.7-.25-1.39-.37-2.08a.67.67,0,1,0-1.3.36Z"/><path class="c" d="M20.33,22.26a8.79,8.79,0,0,0-1.41,11.62,7.17,7.17,0,0,0,3.17,2.73.62.62,0,0,0,.61-1,13.67,13.67,0,0,1-2.59-2.39,7.77,7.77,0,0,1-1.4-3.35A8,8,0,0,1,21,23c.46-.45-.23-1.13-.7-.7Z"/><path class="c" d="M25.17,37.39a.8.8,0,0,0,0-1.6.8.8,0,0,0,0,1.6Z"/><path class="c" d="M72.76,39.39C74.66,49,77.06,58.5,79.6,68c.72,2.66,1.45,5.32,2.22,8a.7.7,0,0,0,1,.41c1.94-1.28,3.88-2.57,5.8-3.88s3.8-2.7,5.72-4a.64.64,0,0,0,.23-.87c-2.52-3.85-5.24-7.57-7.86-11.35s-5.18-7.48-7.81-11.19c-1.51-2.14-3.07-4.24-4.54-6.41l-.88.88c4.82,2.16,9.69,4.22,14.52,6.34s9.58,4.18,14.38,6.26c2.71,1.17,5.44,2.32,8.16,3.47l-.15-1.19A51,51,0,0,1,98,62.19l1,.12q-4.36-4.87-9-9.48c-3.11-3.06-6.25-6.1-9.52-9q-2.76-2.43-5.58-4.78a.76.76,0,0,0-1,0,.74.74,0,0,0,0,1A221.59,221.59,0,0,1,92.88,58c1.68,1.78,3.35,3.58,5,5.4a.8.8,0,0,0,1,.12,58.66,58.66,0,0,0,12.65-8.07.75.75,0,0,0-.15-1.18C101.63,50.05,91.88,46,82.16,41.78Q78.1,40,74,38.35c-.5-.21-1,.51-.72.94C76,43,78.44,46.91,81.09,50.66S86.35,58.09,89,61.82c1.5,2.15,3,4.31,4.53,6.41.08-.29.16-.58.23-.87-1.84,1.41-3.79,2.7-5.72,4s-3.88,2.56-5.85,3.79l1,.41c-2.52-9.46-5-18.93-7.28-28.45-.64-2.68-1.32-5.36-2-8-.19-.73-1.26-.42-1.12.31Z"/><path class="c" d="M98,62.85a4.16,4.16,0,0,0-.5,1.54c-.11.54-.21,1.09-.32,1.63-.21,1.12-.46,2.24-.69,3.35-.45,2.21-1,4.4-1.47,6.6h1.43a29.19,29.19,0,0,1-1.67-8.16c-.07-1-1.62-1-1.54,0a35.55,35.55,0,0,0,1.78,8.55.75.75,0,0,0,1.43,0c.59-2.2,1.09-4.42,1.54-6.66.21-1.1.4-2.2.57-3.29.1-.58.19-1.16.28-1.74a4.23,4.23,0,0,0,0-1.7.47.47,0,0,0-.85-.12Z"/><path class="c" d="M96,76.26a12.66,12.66,0,0,0-1.2-1.63c-.41-.52-.83-1-1.23-1.58s-.79-1.07-1.18-1.62-.75-1.21-1.2-1.74a.67.67,0,0,0-.89,0,.68.68,0,0,0-.17.87,10.85,10.85,0,0,0,1.13,1.72c.4.58.82,1.15,1.26,1.7s.83,1,1.28,1.53a8.58,8.58,0,0,0,1.55,1.46c.41.27.87-.26.65-.66Z"/><path class="c" d="M190.39,153.65a.2.2,0,0,0,0-.07.69.69,0,0,0-.62-.67c-1.13-.11-2.26-.24-3.37-.4a.69.69,0,0,0-.78.57v.11a.69.69,0,0,0,.59.67c1.11.16,2.26.3,3.43.41h.06A.68.68,0,0,0,190.39,153.65Zm-6.78-.92a.29.29,0,0,0,0-.13.68.68,0,0,0-.55-.67c-1-.21-2.15-.46-3.26-.73h-.05a.68.68,0,0,0-.82.49.52.52,0,0,0,0,.17.67.67,0,0,0,.51.66c1.13.29,2.26.55,3.37.76l.14,0A.69.69,0,0,0,183.61,152.73Zm-6.65-1.6a.71.71,0,0,0,0-.2.68.68,0,0,0-.47-.66c-1-.32-2.13-.68-3.22-1.08a.71.71,0,0,0-.88.41.67.67,0,0,0,0,.24.68.68,0,0,0,.45.64c1.12.4,2.22.77,3.28,1.1a.64.64,0,0,0,.2,0A.69.69,0,0,0,177,151.13Zm-6.46-2.28a.82.82,0,0,0,.06-.27.7.7,0,0,0-.42-.63c-1.06-.44-2.09-.91-3.09-1.4a.7.7,0,0,0-.91.32.6.6,0,0,0-.07.3.66.66,0,0,0,.38.61c1,.5,2.1,1,3.15,1.43a.66.66,0,0,0,.27.06A.67.67,0,0,0,170.5,148.85Zm-6.19-2.92a.63.63,0,0,0,.09-.33.67.67,0,0,0-.36-.6c-1-.56-2-1.13-2.92-1.72a.7.7,0,0,0-.94.22.64.64,0,0,0-.1.35.69.69,0,0,0,.31.59h0c1,.6,2,1.19,3,1.75a.67.67,0,0,0,.34.09A.69.69,0,0,0,164.31,145.93Zm-5.84-3.56a.67.67,0,0,0,.12-.39.7.7,0,0,0-.29-.56c-.94-.66-1.85-1.34-2.73-2a.68.68,0,0,0-.95.11.65.65,0,0,0-.15.41.71.71,0,0,0,.26.56c.89.69,1.82,1.38,2.78,2.06a.71.71,0,0,0,.39.12A.7.7,0,0,0,158.47,142.37ZM153,138.2a.72.72,0,0,0,.18-.46.7.7,0,0,0-.24-.5c-.83-.73-1.67-1.5-2.48-2.3a.69.69,0,0,0-1,0,.67.67,0,0,0-.2.48.69.69,0,0,0,.21.49h0c.81.78,1.66,1.58,2.54,2.35a.66.66,0,0,0,.44.17A.69.69,0,0,0,153,138.2ZM5.75,154.54s0,0,.06,0a.66.66,0,0,0,.46-.21.64.64,0,0,0,.2-.49.68.68,0,0,0-.68-.67h0c-1,0-2.24,0-3.39,0a.68.68,0,0,0-.71.66v0a.67.67,0,0,0,.66.67c.89,0,1.72.06,2.54.06Zm3.5-.14c1.18-.08,2.34-.2,3.45-.34a.69.69,0,0,0,.6-.7.13.13,0,0,0,0-.06.7.7,0,0,0-.76-.6c-1.13.14-2.27.25-3.37.33a.68.68,0,0,0-.64.7v0a.68.68,0,0,0,.68.64Zm6.87-.87q1.71-.32,3.39-.72a.71.71,0,0,0,.52-.67,1,1,0,0,0,0-.16.71.71,0,0,0-.83-.51c-1.11.28-2.22.51-3.31.72a.67.67,0,0,0-.56.65.32.32,0,0,0,0,.14.67.67,0,0,0,.67.56Zm6.72-1.65h0c1.11-.34,2.21-.72,3.28-1.12a.69.69,0,0,0,.44-.65.67.67,0,0,0,0-.24.7.7,0,0,0-.88-.4c-1.06.4-2.13.77-3.2,1.1a.69.69,0,0,0-.45.86.67.67,0,0,0,.65.48A.64.64,0,0,0,22.84,151.88Zm6.48-2.45c1.06-.48,2.11-1,3.12-1.52a.71.71,0,0,0,.36-.6.73.73,0,0,0-.08-.33.71.71,0,0,0-.93-.29c-1,.53-2,1-3,1.49a.69.69,0,0,0-.4.64.58.58,0,0,0,.06.26.68.68,0,0,0,.9.35Zm6.12-3.24c1-.6,2-1.24,2.9-1.91a.71.71,0,0,0,.29-.58.72.72,0,0,0-.13-.37.7.7,0,0,0-1-.17c-.9.64-1.85,1.26-2.83,1.86a.73.73,0,0,0-.32.59.61.61,0,0,0,.11.35.66.66,0,0,0,.58.33A.64.64,0,0,0,35.44,146.19Zm5.66-4c.9-.73,1.78-1.5,2.62-2.27a.7.7,0,0,0,.22-.51.68.68,0,0,0-1.15-.5c-.81.75-1.67,1.5-2.55,2.21a.68.68,0,0,0-.26.53.78.78,0,0,0,.15.44.73.73,0,0,0,.54.25A.66.66,0,0,0,41.1,142.19Zm5.08-4.7h0c.8-.85,1.58-1.72,2.31-2.59a.69.69,0,0,0-.09-1,.7.7,0,0,0-1,.09c-.73.87-1.48,1.72-2.25,2.52A.71.71,0,0,0,45,137a.66.66,0,0,0,.21.51.7.7,0,0,0,.47.19A.67.67,0,0,0,46.18,137.49Zm101.91-4a.71.71,0,0,0,.23-.51.7.7,0,0,0-.18-.46c-.74-.81-1.49-1.68-2.21-2.57a.7.7,0,0,0-1-.1.68.68,0,0,0-.26.53.74.74,0,0,0,.16.44h0c.71.87,1.47,1.76,2.26,2.62a.67.67,0,0,0,.5.22A.69.69,0,0,0,148.09,133.47Zm-4.37-5.27a.71.71,0,0,0,.29-.55.69.69,0,0,0-.13-.41c-.41-.57-.77-1.09-1.12-1.61s-.51-.78-.75-1.16l0,0h0a.68.68,0,0,0-1.25.38.59.59,0,0,0,.1.34h0c.28.46.58.9.8,1.23.37.57.76,1.13,1.14,1.65a.67.67,0,0,0,.56.28A.67.67,0,0,0,143.72,128.2ZM140,122.45a.7.7,0,0,0,.36-.6.63.63,0,0,0-.09-.33c-.53-1-1-2-1.51-3a.7.7,0,0,0-.91-.34.68.68,0,0,0-.4.61.63.63,0,0,0,.07.3c.47,1,1,2.07,1.55,3.1a.69.69,0,0,0,.6.36A.73.73,0,0,0,140,122.45Zm-2.95-6.18a.67.67,0,0,0,.44-.65,1.09,1.09,0,0,0,0-.24c-.41-1.07-.78-2.14-1.11-3.19a.69.69,0,0,0-.85-.45.7.7,0,0,0-.49.65.78.78,0,0,0,0,.21c.33,1.09.71,2.2,1.13,3.28a.66.66,0,0,0,.63.43A.69.69,0,0,0,137.06,116.27ZM135,109.75a.7.7,0,0,0,.54-.68.78.78,0,0,0,0-.14c-.17-.75-.32-1.52-.45-2.26a.71.71,0,0,0,.64.27,31.68,31.68,0,0,0,3.44-.68.68.68,0,0,0,.51-.66.5.5,0,0,0,0-.17.71.71,0,0,0-.83-.5,29.25,29.25,0,0,1-3.28.65.68.68,0,0,0-.56.47l-.06-.38v0a0,0,0,0,0,0,0,.71.71,0,0,0-.77-.57.7.7,0,0,0-.59.67.34.34,0,0,0,0,.1h0c.16,1.12.38,2.27.64,3.42a.68.68,0,0,0,.66.53Zm-2.83-2.52h.07a.67.67,0,0,0,.65-.71.68.68,0,0,0-.68-.66h0a28.86,28.86,0,0,1-3.34-.1.69.69,0,0,0-.74.63v.07a.67.67,0,0,0,.62.67c.85.07,1.73.11,2.63.11ZM126,106.1a.36.36,0,0,0,0-.14.7.7,0,0,0-.55-.67c-.64-.13-1.28-.28-1.88-.45-.44-.12-.9-.26-1.35-.41a.71.71,0,0,0-.87.44.64.64,0,0,0,0,.2.7.7,0,0,0,.47.67h0c.42.14.88.28,1.41.42s1.31.34,1.92.47h0s0,0,0,0a.25.25,0,0,0,.12,0A.68.68,0,0,0,126,106.1Zm16.41-.89h0a30.69,30.69,0,0,0,3.19-1.44.72.72,0,0,0,.37-.6.59.59,0,0,0-.09-.32.69.69,0,0,0-.92-.29,30.92,30.92,0,0,1-3,1.37.69.69,0,0,0-.45.65.59.59,0,0,0,0,.23.68.68,0,0,0,.64.44A.67.67,0,0,0,142.45,105.21Zm-22.95-1.08a.58.58,0,0,0,.06-.26.66.66,0,0,0-.4-.63h0c-1-.45-2-1-3-1.5a.71.71,0,0,0-.94.25.73.73,0,0,0-.08.33.71.71,0,0,0,.34.61c1,.57,2.07,1.11,3.11,1.57a.71.71,0,0,0,.28.06A.69.69,0,0,0,119.5,104.13ZM133.89,103a.69.69,0,0,0,.64-.69v0c0-.76-.07-1.51-.07-2.23,0-.39,0-.76,0-1.13v0a.7.7,0,0,0-.67-.67h0a.66.66,0,0,0-.67.66c0,.39,0,.78,0,1.18,0,.73,0,1.52.06,2.31a.69.69,0,0,0,.69.64Zm14.76-1.06h0a26.43,26.43,0,0,0,2.73-2.19.7.7,0,0,0,.22-.51.77.77,0,0,0-.18-.47.71.71,0,0,0-1,0,24.13,24.13,0,0,1-2.59,2.09.66.66,0,0,0-.29.57.69.69,0,0,0,.12.39.7.7,0,0,0,.56.29A.73.73,0,0,0,148.65,101.94Zm-35.16-1.07a.65.65,0,0,0,.13-.38.68.68,0,0,0-.3-.57c-.9-.63-1.8-1.32-2.66-2a.72.72,0,0,0-1,.08.68.68,0,0,0-.16.44.71.71,0,0,0,.24.53c.89.75,1.83,1.46,2.77,2.12a.67.67,0,0,0,.39.12A.7.7,0,0,0,113.49,100.87Zm40.28-3.69s0,0,0,0a20.56,20.56,0,0,0,1.66-2.34c.12-.18.23-.37.35-.56a.73.73,0,0,0,.08-.33.66.66,0,0,0-.34-.61.7.7,0,0,0-.93.26l-.32.52a24.34,24.34,0,0,1-1.53,2.17l0,0h0a.78.78,0,0,0-.15.44.72.72,0,0,0,.25.52.71.71,0,0,0,.44.15A.69.69,0,0,0,153.77,97.18Zm-45.59-.61a.69.69,0,0,0,0-1c-.79-.78-1.56-1.61-2.29-2.46a.69.69,0,0,0-1.21.46.68.68,0,0,0,.17.43s0,0,0,0c.74.87,1.53,1.72,2.36,2.54a.67.67,0,0,0,.48.2A.7.7,0,0,0,108.18,96.57Zm26.57-1a33,33,0,0,1,.6-3.3.88.88,0,0,0,0-.17.69.69,0,0,0-.53-.65A.68.68,0,0,0,134,92a32.11,32.11,0,0,0-.63,3.44.31.31,0,0,0,0,.1.7.7,0,0,0,.6.66h.09A.69.69,0,0,0,134.75,95.57Zm-31.11-4.12a.73.73,0,0,0,.28-.55.68.68,0,0,0-.14-.41c-.65-.89-1.28-1.82-1.89-2.8a.69.69,0,0,0-.94-.21.64.64,0,0,0-.32.59.68.68,0,0,0,.1.36h0c.61,1,1.26,1.94,1.94,2.87a.71.71,0,0,0,.55.28A.74.74,0,0,0,103.64,91.45ZM157.22,91a17.3,17.3,0,0,0,.74-3.48v-.07a.67.67,0,0,0-.61-.68.7.7,0,0,0-.76.61,14.85,14.85,0,0,1-.67,3.2.65.65,0,0,0,0,.2.69.69,0,0,0,.47.66.53.53,0,0,0,.22,0A.68.68,0,0,0,157.22,91Zm-20.93-1.94c.12-.33.25-.67.38-1,.29-.72.6-1.41.92-2.06a.78.78,0,0,0,.07-.3.7.7,0,0,0-.37-.62.71.71,0,0,0-.93.31c-.34.69-.66,1.42-1,2.16-.14.35-.27.71-.4,1.06a.67.67,0,0,0,0,.24.69.69,0,0,0,.46.64.59.59,0,0,0,.23,0A.67.67,0,0,0,136.29,89.06ZM99.92,85.7a.67.67,0,0,0,.36-.6.6.6,0,0,0-.07-.32c-.54-1-1-2-1.47-3a.69.69,0,0,0-.9-.35.68.68,0,0,0-.35.89c.46,1.06,1,2.11,1.51,3.13a.67.67,0,0,0,.61.37A.65.65,0,0,0,99.92,85.7Zm57.37-1a.67.67,0,0,0,.56-.65v-.15a9.82,9.82,0,0,0-1.28-3.42.7.7,0,0,0-.94-.23.69.69,0,0,0-.33.59.83.83,0,0,0,.1.35h0l0,0a8.48,8.48,0,0,1,1.07,2.92.68.68,0,0,0,.67.56Zm-18-1.56a15.74,15.74,0,0,1,2.17-2.45.68.68,0,0,0,.23-.51.7.7,0,0,0-.18-.46.71.71,0,0,0-1,0h0a17.51,17.51,0,0,0-2.36,2.67.68.68,0,0,0,.15,1,.69.69,0,0,0,.41.13A.67.67,0,0,0,139.29,83.15Zm14.91-4.36a.77.77,0,0,0,.11-.39.67.67,0,0,0-.3-.55s0,0,0,0a9.26,9.26,0,0,0-3.43-1.32.7.7,0,0,0-.8.56v.11a.67.67,0,0,0,.57.68A7.82,7.82,0,0,1,153.25,79a.62.62,0,0,0,.37.11A.69.69,0,0,0,154.2,78.79Zm-10.09.06a10.13,10.13,0,0,1,3-1,.7.7,0,0,0,.58-.68.41.41,0,0,0,0-.11.69.69,0,0,0-.79-.56,11.75,11.75,0,0,0-3.44,1.11.71.71,0,0,0-.38.63.64.64,0,0,0,.08.3.67.67,0,0,0,.61.37A.82.82,0,0,0,144.11,78.85Z"/><path class="c" d="M48.66,112.66a19.92,19.92,0,0,0,5.4,13.57,19.45,19.45,0,0,0,11.33,5.44,23.46,23.46,0,0,0,14.19-2.5,22,22,0,0,0,9.92-10.5A22.5,22.5,0,0,0,90.77,104a21.33,21.33,0,0,0-6.24-10.33A20.53,20.53,0,0,0,75,88.81a21.64,21.64,0,0,0-10.69.51,22,22,0,0,0-9.48,5.9,23.28,23.28,0,0,0-6.24,13.49,24.8,24.8,0,0,0-.08,4c0,.68,1.11.69,1.08,0a22.91,22.91,0,0,1,4.18-14.5,21.27,21.27,0,0,1,8.47-6.85,20.4,20.4,0,0,1,9.93-1.68A19.16,19.16,0,0,1,88.3,101.07a20.82,20.82,0,0,1,1.18,13.5A20.56,20.56,0,0,1,82,126.11,22.06,22.06,0,0,1,69.1,130.6a20.22,20.22,0,0,1-11.87-3.41,18.66,18.66,0,0,1-7-10.46,28,28,0,0,1-.75-4.07C49.39,112.17,48.65,112.14,48.66,112.66Z"/><path class="c" d="M71.85,88.91c-1.33,1.25-.52,3.55.36,4.81,1.05,1.5,2.65,2.67,3.45,4.35a6.57,6.57,0,0,1,.32,2.86,3.81,3.81,0,0,0,.93,2.54,5.66,5.66,0,0,0,4.94,1.61c2.31-.24,4.63-1.38,7-.65.82.25,1.15-1,.35-1.28-1.9-.65-3.85-.17-5.76.17-1.63.3-3.53.59-5-.44a2.42,2.42,0,0,1-1-1.64,16,16,0,0,0-.21-2.84c-.54-1.72-1.87-2.89-3.12-4.11a6.77,6.77,0,0,1-1.74-2.4,4,4,0,0,1,.07-2.67.33.33,0,0,0-.54-.31Z"/><path class="c" d="M49.76,116.33c.87-.5,1.69-1.09,2.54-1.62s1.73-1,2.63-1.49c1.34-.67,3.44-1.72,4.77-.5,1.13,1,1.09,2.89,1.36,4.28s1,3.14,2.51,3.74c1.79.72,3.53-.48,4.79-1.65,1.49-1.38,3-2.78,4.56-4,.79-.61,1.61-1.21,2.46-1.75a3.25,3.25,0,0,1,2.53-.76,1.24,1.24,0,0,1,1,1.55,4.41,4.41,0,0,0-.22,2.46c.51,1.68,2.36,2.49,3.88,3a7.26,7.26,0,0,1,2.21,1.1c.53.41,1.14,1,1,1.76s1,1.14,1.22.33c.47-1.78-.87-3.13-2.36-3.86s-3.1-.85-4.24-2a1.66,1.66,0,0,1-.45-1.8,3,3,0,0,0-.09-2.75c-1.22-1.69-3.48-1.18-5-.27a39.34,39.34,0,0,0-5.26,3.81c-.79.67-1.52,1.41-2.29,2.11A5.44,5.44,0,0,1,65,119.51c-1.7.4-2.39-1.51-2.64-2.82-.31-1.64-.33-3.38-1.45-4.73-1.51-1.83-4.06-1.24-5.9-.32a22.81,22.81,0,0,0-3,1.8,14,14,0,0,0-2.67,2.31.37.37,0,0,0,.44.58Z"/><path class="c" d="M52.25,100.46c1.56.15,2.83,1.28,4.26,1.81a3.57,3.57,0,0,0,4-.66,6.12,6.12,0,0,0,1.17-3.8,5.82,5.82,0,0,1,.44-2.22,5,5,0,0,1,1.34-1.53C64.71,93,66,91.79,65.73,90c-.12-.73-1.27-.43-1.11.3.29,1.33-1.21,2.33-2.09,3a5.75,5.75,0,0,0-1.35,1.39,4.81,4.81,0,0,0-.68,1.91c-.19,1.21-.07,2.6-.69,3.71s-2,1.11-3.1.71c-1.5-.53-2.79-1.56-4.46-1.44a.43.43,0,0,0,0,.86Z"/><path class="c" d="M51,114.53a16,16,0,0,0-.47,2.39,7.38,7.38,0,0,0,0,2.39.3.3,0,0,0,.57,0,16,16,0,0,0,.3-2.31c.09-.76.22-1.52.35-2.28a.37.37,0,0,0-.71-.19Z"/><path class="c" d="M52.32,114c-.25,1.28-.3,2.6-.42,3.89s-.27,2.64-.41,4c-.05.53.77.52.83,0,.15-1.29.25-2.59.35-3.89a26.59,26.59,0,0,0,.15-3.89c0-.27-.45-.37-.5-.07Z"/><path class="c" d="M53.58,113.08a18,18,0,0,0-.21,2.75c0,.94-.09,1.88-.12,2.81-.07,1.88-.15,3.76-.22,5.64,0,.57.85.56.88,0q.12-2.77.27-5.55c0-.91.09-1.82.12-2.73a19,19,0,0,0,0-2.82c0-.39-.65-.56-.75-.1Z"/><path class="c" d="M55.46,112.17c-.2,2.33-.34,4.66-.48,7-.07,1.14-.13,2.27-.19,3.41s-.2,2.39-.24,3.58c0,.66,1,.64,1,0,.1-1.16.11-2.33.18-3.49l.21-3.5c.13-2.33.25-4.66.32-7,0-.53-.77-.52-.81,0Z"/><path class="c" d="M57.24,111.59c-.48,5.18-.57,10.39-1,15.57,0,.72,1.07.72,1.12,0A137.25,137.25,0,0,0,58,111.59a.39.39,0,0,0-.77,0Z"/><path class="c" d="M59,111.88c-.39,5.62-.17,11.24-.21,16.87,0,.66,1.06.66,1,0-.22-5.62.06-11.25,0-16.87a.41.41,0,0,0-.82,0Z"/><path class="c" d="M61.09,113.76c-.17,1.29-.2,2.61-.27,3.92s-.15,2.67-.22,4c-.13,2.64-.24,5.29-.21,7.93a.58.58,0,0,0,1.16,0c0-2.64,0-5.29,0-7.93,0-1.31,0-2.61.06-3.92s.15-2.67.12-4a.32.32,0,0,0-.63,0Z"/><path class="c" d="M62.31,119a91.37,91.37,0,0,0-.23,11.1c0,.69,1.1.69,1.07,0-.18-3.71-.11-7.4,0-11.1,0-.53-.75-.51-.8,0Z"/><path class="c" d="M64,120.16a15.74,15.74,0,0,0-.18,2.48c0,.85-.06,1.71-.08,2.56l0,2.57c0,.85-.06,1.72,0,2.56a.55.55,0,0,0,1.1,0c0-.85,0-1.71,0-2.56s0-1.71,0-2.57,0-1.71,0-2.56a17,17,0,0,0-.11-2.48.31.31,0,0,0-.6,0Z"/><path class="c" d="M65.27,120.1l.24,5.27c0,.85.08,1.7.12,2.56a18.6,18.6,0,0,0,.17,2.69c.11.61,1,.41,1-.14a18.08,18.08,0,0,0-.13-2.55c-.06-.88-.11-1.76-.17-2.64-.12-1.73-.23-3.46-.35-5.19,0-.57-.92-.58-.9,0Z"/><path class="c" d="M66.87,118.8q.22,3.11.43,6.22c.14,2,.21,4.12.49,6.16.08.51.89.38.89-.12,0-2-.27-4.09-.44-6.13s-.33-4.09-.48-6.13c-.05-.56-.93-.57-.89,0Z"/><path class="c" d="M68.39,117.66c.29,4.33.82,8.64,1.2,13,.06.7,1.17.69,1.09,0-.51-4.36-.87-8.74-1.46-13.09-.06-.47-.87-.36-.83.12Z"/><path class="c" d="M70.15,116.93a57.58,57.58,0,0,0,.42,6.94c.11,1.13.22,2.26.34,3.38a25.86,25.86,0,0,0,.45,3.52.51.51,0,0,0,1-.14,33.57,33.57,0,0,0-.38-3.46c-.14-1.16-.27-2.31-.39-3.47-.25-2.28-.38-4.6-.79-6.86-.07-.38-.64-.27-.65.09Z"/><path class="c" d="M71.85,115.05c.39,5.15.83,10.28,1.32,15.42.07.72,1.2.72,1.13,0-.51-5.15-1.06-10.28-1.66-15.42-.06-.49-.83-.51-.79,0Z"/><path class="c" d="M73.39,113.91c.34,5.21,1.07,10.38,1.75,15.56a.55.55,0,0,0,1.09,0c-.62-5.23-1.19-10.48-2.15-15.66-.07-.39-.72-.3-.69.1Z"/><path class="c" d="M75.22,112.74c.26,2.69.54,5.38.82,8.07s.52,5.4.85,8.08a.65.65,0,0,0,.64.64.64.64,0,0,0,.63-.64c-.31-2.72-.71-5.44-1.07-8.16s-.71-5.4-1.09-8.1c-.06-.44-.82-.34-.78.11Z"/><path class="c" d="M76.84,112q.25,4.13.69,8.24c.15,1.35.29,2.69.47,4a29,29,0,0,0,.67,4.17.56.56,0,0,0,1.1-.15,36.5,36.5,0,0,0-.51-4c-.19-1.37-.39-2.73-.58-4.1-.36-2.72-.7-5.45-1-8.17-.06-.52-.86-.54-.82,0Z"/><path class="c" d="M78.92,115.63c.12,2,.28,4,.5,6,.11,1,.24,1.94.36,2.92a10,10,0,0,0,.58,3c.27.58,1.07.23,1.11-.3a6.26,6.26,0,0,0-.17-1.42c-.09-.49-.2-1-.3-1.48-.19-1-.36-1.93-.51-2.89-.32-2-.6-3.92-.82-5.88-.06-.47-.78-.49-.75,0Z"/><path class="c" d="M80.62,118.23a15.54,15.54,0,0,0,.27,2l.33,2.15c.1.69.21,1.38.32,2.07a7.9,7.9,0,0,0,.41,2.1c.22.5.92.19,1-.26a8,8,0,0,0-.33-2c-.14-.68-.27-1.36-.4-2s-.27-1.37-.41-2a20,20,0,0,0-.43-2c-.12-.37-.73-.32-.71.1Z"/><path class="c" d="M82.35,118.8a27.88,27.88,0,0,0,.33,3.42c.09.56.19,1.12.3,1.67a5,5,0,0,0,.53,1.68.5.5,0,0,0,.93-.26,6.91,6.91,0,0,0-.35-1.73c-.14-.52-.27-1-.39-1.57-.25-1.09-.48-2.19-.67-3.3-.07-.39-.7-.29-.68.09Z"/><path class="c" d="M84.19,120.32c.12.49.22,1,.3,1.49,0,.23.05.46.07.69a4,4,0,0,1,0,.77c0,.28.29.49.54.46a.48.48,0,0,0,.39-.59c0-.23-.07-.52-.12-.78s-.08-.49-.14-.73a9.4,9.4,0,0,0-.46-1.48.31.31,0,0,0-.38-.21.3.3,0,0,0-.21.38Z"/><path class="c" d="M73.35,89a5.65,5.65,0,0,0-1.06,1.37,7.22,7.22,0,0,0-.73,1.57.38.38,0,0,0,.7.29A14,14,0,0,1,73,90.75a7.49,7.49,0,0,1,.45-.65,3.32,3.32,0,0,1,.22-.27l.29-.39a.39.39,0,0,0-.1-.52.4.4,0,0,0-.53,0Z"/><path class="c" d="M74.15,89c-.27.64-.56,1.26-.86,1.88l-.48.92a6.93,6.93,0,0,0-.48.94.36.36,0,0,0,.6.35,4.65,4.65,0,0,0,.54-.91c.16-.3.32-.61.47-.92.31-.61.6-1.24.87-1.87a.4.4,0,0,0-.14-.52.37.37,0,0,0-.52.13Z"/><path class="c" d="M75.63,89.43a26.85,26.85,0,0,0-1.37,2.39c-.2.39-.41.78-.59,1.19-.08.21-.17.41-.26.62a5,5,0,0,0-.2.73.33.33,0,0,0,.6.26,5.54,5.54,0,0,0,.36-.62l.27-.65c.18-.41.33-.83.5-1.25l1-2.53c.08-.19-.21-.29-.31-.14Z"/><path class="c" d="M76.43,89.83a29.22,29.22,0,0,0-1.18,2.69l-.56,1.37a5.93,5.93,0,0,0-.5,1.39.41.41,0,0,0,.3.39.44.44,0,0,0,.46-.18,6.6,6.6,0,0,0,.57-1.37c.16-.45.33-.89.5-1.33.33-.91.7-1.81,1-2.74a.3.3,0,0,0-.54-.22Z"/><path class="c" d="M77.89,90.48a3.79,3.79,0,0,0-.77,1.26c-.23.48-.43,1-.64,1.46-.41,1-.78,2-1.17,3a.49.49,0,1,0,1,.26c.36-1,.74-2,1.06-2.94.16-.49.33-1,.47-1.46a3.84,3.84,0,0,0,.26-1.49.09.09,0,0,0-.16-.06Z"/><path class="c" d="M78.89,90.91a13,13,0,0,0-1.63,3.3c-.23.56-.44,1.12-.65,1.69a12.1,12.1,0,0,0-.6,1.85.49.49,0,0,0,.29.59.48.48,0,0,0,.62-.2,17.44,17.44,0,0,0,.59-1.72c.2-.59.41-1.18.62-1.77s.42-1.14.64-1.7a9.43,9.43,0,0,0,.59-1.77c0-.24-.28-.51-.47-.27Z"/><path class="c" d="M80,91.48a8.24,8.24,0,0,0-1,2c-.28.7-.55,1.41-.82,2.11-.54,1.43-1.13,2.85-1.63,4.3-.21.59.7.82.92.25.56-1.42,1-2.88,1.57-4.31.26-.71.52-1.42.76-2.13a7.93,7.93,0,0,0,.55-2.14c0-.22-.26-.24-.36-.1Z"/><path class="c" d="M81.25,92.29a5.08,5.08,0,0,0-.61,1.18c-.18.42-.36.85-.53,1.27-.37.91-.71,1.83-1,2.74s-.65,1.79-1,2.68a21,21,0,0,0-.94,2.77c-.1.49.61.86.85.36a22.34,22.34,0,0,0,1-2.63q.48-1.39,1-2.76c.33-.89.68-1.77,1-2.67.16-.44.33-.88.49-1.33a5.12,5.12,0,0,0,.4-1.37.35.35,0,0,0-.59-.24Z"/><path class="c" d="M82.69,93.39c-.7,1.66-1.32,3.36-2,5-.35.84-.7,1.67-1,2.5-.17.42-.34.84-.49,1.26a4.49,4.49,0,0,0-.38,1.33.46.46,0,0,0,.78.32,3.8,3.8,0,0,0,.56-1.12c.17-.42.33-.84.49-1.26.31-.87.61-1.75.91-2.62.6-1.73,1.28-3.42,1.86-5.15.13-.39-.5-.67-.67-.28Z"/><path class="c" d="M84,94.75c-.61,1.5-1.26,3-1.89,4.47-.3.72-.59,1.44-.89,2.17a21.09,21.09,0,0,0-.89,2.28.5.5,0,0,0,.9.38,21.2,21.2,0,0,0,1-2.31c.3-.73.6-1.46.88-2.19.58-1.53,1.15-3.06,1.75-4.57.21-.51-.61-.73-.82-.23Z"/><path class="c" d="M85.55,95.83a15.55,15.55,0,0,0-.79,1.88c-.25.63-.5,1.26-.74,1.89s-.5,1.27-.76,1.91a10.54,10.54,0,0,0-.79,1.91.48.48,0,0,0,.88.37,11.87,11.87,0,0,0,.72-1.94q.34-.94.72-1.89c.24-.63.48-1.25.73-1.88a17.83,17.83,0,0,0,.71-2,.37.37,0,0,0-.68-.28Z"/><path class="c" d="M86.69,97.63a14.77,14.77,0,0,0-1.37,2.93l-.58,1.5a6,6,0,0,0-.51,1.58c0,.48.62.58.85.23a6.43,6.43,0,0,0,.56-1.5c.16-.51.34-1,.51-1.52a18.22,18.22,0,0,0,.94-3,.22.22,0,0,0-.4-.17Z"/><path class="c" d="M87.66,99.05c-.37.62-.71,1.25-1,1.9l-.45.94a8.3,8.3,0,0,0-.44,1.07.41.41,0,0,0,.74.31c.17-.34.31-.71.45-1.06s.25-.65.39-1l.81-2c.12-.28-.33-.45-.47-.2Z"/><path class="c" d="M88.31,101a4.23,4.23,0,0,1-.13.51,1.43,1.43,0,0,1-.08.22s0,.08,0,.13,0,0,0,0l0,.06a4.8,4.8,0,0,1-.51.88.34.34,0,1,0,.58.34,4.91,4.91,0,0,0,.84-2,.32.32,0,0,0-.22-.39.33.33,0,0,0-.4.22Z"/><path class="c" d="M53,97.9a9.61,9.61,0,0,0,.22,1.41q.07.33.18.66c0,.1.07.21.11.32a1.77,1.77,0,0,0,.15.38.41.41,0,0,0,.42.17.38.38,0,0,0,.27-.36,4.22,4.22,0,0,0-.21-.69c-.07-.21-.12-.42-.18-.63a9.2,9.2,0,0,1-.21-1.26.39.39,0,0,0-.38-.38.38.38,0,0,0-.37.38Z"/><path class="c" d="M53.82,96.88A14.78,14.78,0,0,0,54.1,99c.12.7.24,1.39.37,2.08a.45.45,0,0,0,.54.31.46.46,0,0,0,.31-.55c-.13-.67-.28-1.34-.43-2a15,15,0,0,0-.51-2c-.11-.27-.56-.26-.56.08Z"/><path class="c" d="M54.81,96c.2.9.4,1.8.55,2.71.08.43.15.87.2,1.3a5.3,5.3,0,0,0,.25,1.43.42.42,0,0,0,.76-.1,4,4,0,0,0-.13-1.45c-.07-.45-.15-.91-.24-1.36a25.27,25.27,0,0,0-.71-2.72.35.35,0,0,0-.68.19Z"/><path class="c" d="M55.85,94.73a32.28,32.28,0,0,0,.69,3.36c.25,1.12.47,2.26.67,3.39.11.59,1,.34.9-.25-.22-1.13-.46-2.26-.71-3.38a19.49,19.49,0,0,0-.93-3.28c-.12-.3-.65-.16-.62.16Z"/><path class="c" d="M57.12,94A37.31,37.31,0,0,1,59,101.35a.49.49,0,0,0,.48.48.49.49,0,0,0,.48-.48,24.23,24.23,0,0,0-2.17-7.64c-.17-.34-.74-.1-.62.27Z"/><path class="c" d="M58.45,92.71a6.9,6.9,0,0,0,.42,1.65L59.29,96c.14.54.27,1.08.39,1.63s.17,1.15.33,1.69a.42.42,0,0,0,.82-.11,9.84,9.84,0,0,0-.26-1.7c-.11-.59-.24-1.18-.38-1.76s-.3-1.11-.49-1.66a5.25,5.25,0,0,0-.66-1.6c-.19-.25-.59,0-.59.24Z"/><path class="c" d="M59.65,91.93l.4,2,.2,1a5.18,5.18,0,0,0,.26,1c.16.36.72.16.72-.2a4.37,4.37,0,0,0-.18-1c-.07-.33-.14-.67-.22-1-.14-.66-.29-1.32-.43-2a.39.39,0,0,0-.48-.27.38.38,0,0,0-.27.47Z"/><path class="c" d="M61.25,91.27a14.32,14.32,0,0,0,.11,1.47c0,.51.08,1,.16,1.53a.44.44,0,0,0,.54.31.45.45,0,0,0,.3-.54c-.07-.48-.19-1-.28-1.42s-.19-1-.33-1.41a.25.25,0,0,0-.5.06Z"/><path class="c" d="M62.07,90.79l.24,1.45c.08.48.15,1,.27,1.45a.41.41,0,0,0,.5.28.42.42,0,0,0,.29-.5c-.07-.49-.19-1-.29-1.44l-.32-1.44a.36.36,0,1,0-.69.2Z"/><path class="c" d="M63.3,90.8l.3,1.44a.43.43,0,0,0,.53.31.44.44,0,0,0,.31-.54c-.11-.47-.23-1-.34-1.43a.42.42,0,0,0-.51-.29.44.44,0,0,0-.29.51Z"/><path class="c" d="M155.43,17.75a74.37,74.37,0,0,0-11.85-3.81c-1-.25-1.94-.51-2.92-.72a2.08,2.08,0,0,0-2.08.38,4,4,0,0,0-.78,2.09c-.23,1-.47,2.09-.73,3.13a.77.77,0,0,0,.52.92q4.92,1.61,9.89,3c1.61.45,3.22.9,4.83,1.33.86.23,1.72.47,2.58.68a3.35,3.35,0,0,0,1.88.07c1.09-.37,1.56-1.66,1.92-2.65a4,4,0,0,0,0-3.25c-.68-1.13-2.1-1.35-3.27-1.66-1.76-.47-3.52-.91-5.29-1.36a.73.73,0,0,0-.38,1.41c1.37.37,2.74.74,4.11,1.09.72.18,1.44.35,2.15.54a2.39,2.39,0,0,1,1.43.71c.6.82.05,2.12-.31,2.94-.27.61-.57,1.11-1.33,1a13.86,13.86,0,0,1-2-.54C148.5,21.62,143.23,20,138,18.3l.52.92c.17-.84.34-1.68.53-2.52.13-.55.18-2,.92-2a5.52,5.52,0,0,1,1.24.32l1.29.34,2.42.62c3.39.85,6.8,1.85,10.26,2.38.35.06.66-.45.26-.63Z"/><path class="c" d="M140.39,20.49c-3.67,7.53-7.39,15-12.15,22-2.39,3.46-5,6.68-7.59,10a7.4,7.4,0,0,0-1.91,4.75,6.23,6.23,0,0,0,1.89,4c2.52,2.62,6.29,3.8,9.64,4.92A79,79,0,0,0,143,69.27c1.94.3,4.21.88,6.14.34a5.59,5.59,0,0,0,3.37-2.93,10.07,10.07,0,0,0,.77-5.66c-.22-2.15-.61-4.28-.84-6.43A100.85,100.85,0,0,1,152,39.34a113.88,113.88,0,0,1,2.07-15.27c.14-.75-1-1.07-1.15-.32a78.65,78.65,0,0,0-2.05,12.48A88.08,88.08,0,0,0,150.55,49c.09,2.08.26,4.16.49,6.22s.63,4.06.8,6.1a7.76,7.76,0,0,1-1.11,5.45c-1.19,1.62-2.89,1.71-4.75,1.5a73.7,73.7,0,0,1-12.3-2.5c-3.52-1-7.36-2.12-10.42-4.21a6.83,6.83,0,0,1-2.92-3.49c-.5-1.74.37-3.33,1.39-4.68,2.38-3.13,4.84-6.16,7.07-9.4,4.95-7.23,9.58-14.83,12.74-23,.25-.66-.84-1.12-1.15-.48Z"/><path class="c" d="M134.09,40.56c-2.05,2.27-4,4.66-5.9,7-1.64,2-3.6,4.08-4.48,6.56a4.79,4.79,0,0,0,1.83,5.76c2.08,1.46,4.81,2.21,7.21,3,2.75.86,5.56,1.54,8.36,2.2,2.23.53,4.92,1.31,6.73-.6,1.56-1.64,1.66-4,1.22-6.09-.3-1.39-.82-2.72-1.13-4.11a18,18,0,0,1-.48-4.51,17.67,17.67,0,0,1,.27-2.51,3.51,3.51,0,0,0,.06-1.61c-.37-1.21-2.16-1.38-3.17-1.71-3.3-1.05-6.62-2-9.93-3-.76-.23-1.08.95-.33,1.19,2.56.8,5.11,1.62,7.68,2.38l3.53,1c.72.21,1.16.19,1.07,1-.06.54-.22,1.09-.29,1.63a18.27,18.27,0,0,0,.39,7.25c.58,2.17,1.73,4.49,1.05,6.77a3.07,3.07,0,0,1-1.8,2.1,6.89,6.89,0,0,1-3.76-.23c-2.45-.55-4.9-1.12-7.31-1.8a49,49,0,0,1-7.1-2.49c-2-.91-3.68-2.37-3-4.76s2.86-4.61,4.43-6.63c1.87-2.41,3.76-4.83,5.51-7.33.26-.38-.33-.83-.63-.49Z"/><path class="c" d="M144.59,36a.66.66,0,0,0-.34-.05,1.38,1.38,0,0,0-.27.08,1.62,1.62,0,0,0-.57.36,2.12,2.12,0,0,0-.62,1.12,2.06,2.06,0,0,0,.94,2.29,2.33,2.33,0,0,0,2.35-.11,1.83,1.83,0,0,0,.62-2.44,2.24,2.24,0,0,0-1.12-1.05,2,2,0,0,0-1.62,0,.59.59,0,0,0-.21.8.61.61,0,0,0,.8.22h0l.12,0h.05c.05,0-.08,0-.08,0a.57.57,0,0,0,.13,0h.12c.07,0-.14,0-.07,0h.05l.24.07c.06,0-.06,0-.06,0l.06,0,.09,0,.21.14,0,0,0,0,.09.08.08.09,0,0s0,0,0,0a1.13,1.13,0,0,0,.12.18.54.54,0,0,0,0,.11s0-.12,0-.06l0,.08,0,.11c0,.12,0-.1,0,0a1.77,1.77,0,0,0,0,.23c0-.11,0-.1,0,0s0,0,0,0l0,.11c0,.09.06-.12,0,0a.93.93,0,0,1-.05.1.47.47,0,0,0-.06.09s.08-.1,0-.06a.08.08,0,0,0,0,0l-.16.15s.06-.05.06,0a.09.09,0,0,0-.05,0l-.09.06-.09.05,0,0c.1,0,0,0,0,0l-.11,0-.22.05h-.3c-.1,0,.14,0,0,0l-.1,0a.76.76,0,0,1-.2-.06l-.05,0,.06,0-.09,0-.09,0,0,0c-.09-.05.08.07,0,0l-.14-.13s-.1-.11,0,0,0,0,0-.06a.93.93,0,0,1-.05-.1s0,0,0,0,0,.11,0,0a1.55,1.55,0,0,1-.06-.23s0-.06,0-.09,0,0,0,0a1.93,1.93,0,0,1,0-.24V37.8c0-.07,0,.12,0,0a.51.51,0,0,1,0-.13,2.58,2.58,0,0,1,.08-.26.08.08,0,0,1,0,0c0-.06-.06.11,0,0l.06-.12.12-.23a.86.86,0,0,0,.07-.1s0-.07,0,0,0,0,0,0l.09-.1.07-.08c.11-.13,0,0,0,0a2.23,2.23,0,0,0,.35-.4.22.22,0,0,0-.12-.31Z"/><path class="c" d="M144.19,26.14l-.17.07-.06,0c-.05,0,0,0,0,0a.65.65,0,0,0-.34.23,2,2,0,0,0-.33.48,2.29,2.29,0,0,0-.17,1.29,1.87,1.87,0,0,0,1.78,1.64,2.27,2.27,0,0,0,2.15-1.69,1.94,1.94,0,0,0-1.3-2.27,2.15,2.15,0,0,0-2.59.9.62.62,0,0,0,.22.82.6.6,0,0,0,.81-.22l.06-.09c0-.06-.09.1,0,.05s0,0,0,0l.08-.07s.16-.13,0,0l.16-.12.09,0c.12-.06-.13,0,0,0l.2-.06.1,0h.37c.07,0-.16,0-.06,0l.21.05.1,0c.12,0-.13-.05,0,0l.2.1.07.05c.12.08-.08-.08,0,0l.15.15,0-.06,0,.05a.47.47,0,0,1,0,.1l0,.06s0-.13,0-.07l0,.12s0,0,0,.07,0,0,0-.05a.66.66,0,0,0,0,.14s0,.08,0,.12,0-.06,0-.06,0,.05,0,.06a1.83,1.83,0,0,1-.08.25c0,.07.05-.1,0,0a.17.17,0,0,0,0,.05l-.06.11a.61.61,0,0,0-.07.1c-.06.09,0,0,0,0s0,0,0,.05l-.19.19,0,0c-.06.05,0,0,0,0s-.09.07-.11.08-.19.13-.22.11h0l0,0-.13,0h-.26c-.1,0,0,0,0,0l-.09,0-.12,0-.06,0s.09.05.05,0l-.2-.11c-.06,0,.08.07,0,0l-.07-.08s-.06-.08-.08-.08l0,0,0-.06-.11-.18s0,0,0-.05,0,.1,0,0,0-.08,0-.12a1.83,1.83,0,0,1-.06-.25s0-.07,0,0,0,0,0,0,0-.09,0-.13,0-.21,0-.24,0,.1,0,0v-.07l0-.12,0-.11s.07-.16,0-.05l.11-.21,0-.05s-.05.05,0,0a1.58,1.58,0,0,0,.12-.15l0-.1v0s-.12.13,0,.05l.11-.08c.25-.2,0-.66-.32-.55Z"/><path class="c" d="M149.56,7.45l-.09-.12s0,.07,0,0a.54.54,0,0,0-.22-.23,1,1,0,0,0-.45-.12,1.31,1.31,0,0,0-.74.22,1.72,1.72,0,0,0-.76,1.43A2.47,2.47,0,0,0,148.94,11a2.21,2.21,0,0,0,2.58-1,2,2,0,0,0-.36-2.6,2.31,2.31,0,0,0-1.44-.56,1.71,1.71,0,0,0-.71.11,1.59,1.59,0,0,0-.37.18,1.64,1.64,0,0,0-.42.41.67.67,0,0,0,.11.83.68.68,0,0,0,.83.11l.18-.12c.06,0,.23-.08,0,0l.16-.06.11,0c.18,0-.14,0,0,0h.29c-.18,0-.14,0-.08,0l.21,0,.07,0c.11,0-.16-.08,0,0l.16.09c.05,0,.1.11,0,0a.27.27,0,0,0,.08.07,1.42,1.42,0,0,0,.12.13c-.12-.09-.07-.09,0,0a.41.41,0,0,1,.05.09c0,.08,0,.11,0,0l0,.11s0,0,0,.08,0-.16,0,0V9c0,.14,0-.16,0,0a1,1,0,0,0,0,.14s0,.1,0,.1l0-.08a.3.3,0,0,1,0,.08l-.1.18c-.08.12.09-.11,0,0l-.08.08a.46.46,0,0,1-.07.07l-.06.06,0,0-.18.11-.11,0s.14,0,0,0a.77.77,0,0,0-.23.06c0-.05.15,0,0,0h-.15c-.14,0,.15,0,0,0l-.08,0-.12,0h0c-.07,0-.05,0,0,0l-.18-.09-.11-.07.05,0-.05,0a1.45,1.45,0,0,1-.17-.18c-.09-.09,0,0,0,0a.41.41,0,0,1-.07-.11,1.74,1.74,0,0,1-.11-.18c-.07-.14,0,0,0,0a1.66,1.66,0,0,0-.06-.16.24.24,0,0,0,0-.08.19.19,0,0,0,0-.08c0-.08,0-.06,0,.05a1.13,1.13,0,0,0,0-.26v0c0-.07,0-.06,0,.05l0-.12v0c0-.07,0-.06,0,0l.08-.14a.41.41,0,0,0,.05-.09l0,0,.05-.07.08-.07c.1-.1-.08,0,0,0s0,0,0,0h0c.05,0,0,0-.06,0H149a.47.47,0,0,0,.17,0q-.24,0-.12,0a.46.46,0,0,0,.48-.16.45.45,0,0,0,0-.5Z"/><path class="c" d="M142.87,47.19a6.22,6.22,0,0,0-1.21,2.39,12.64,12.64,0,0,0-.56,2.72,10.92,10.92,0,0,0,.76,5.51c.3.67,1.41.19,1.18-.5a13.33,13.33,0,0,1-.83-4.92,11.27,11.27,0,0,1,.39-2.46c.11-.4.25-.79.38-1.18a10.56,10.56,0,0,0,.49-1.21.36.36,0,0,0-.6-.35Z"/><path class="c" d="M143.73,60.69a.6.6,0,0,0,0-1.2.6.6,0,0,0,0,1.2Z"/><path class="c" d="M141.54,17c1.92.5,3.83,1,5.72,1.65.94.3,1.88.63,2.81,1a25.94,25.94,0,0,0,2.77,1.07.41.41,0,0,0,.32-.74,16.69,16.69,0,0,0-2.66-1.09c-1-.35-1.94-.69-2.92-1a51.52,51.52,0,0,0-5.87-1.5c-.4-.08-.58.52-.17.63Z"/><path class="c" d="M155.61,21.85a.64.64,0,0,0,0-1.28.64.64,0,0,0,0,1.28Z"/><path class="c" d="M6.47,131.44c2.19-.67,4.38-1.37,6.55-2.11,4.3-1.47,8.54-3.09,12.77-4.73,2.42-.95,4.85-1.9,7.25-2.88.42-.17.24-.87-.19-.69-8.46,3.44-17.09,6.38-25.74,9.32l-3.62,1.22-1.88.66a10.19,10.19,0,0,0-1.61.64v.27a16.17,16.17,0,0,0,3.2-.75C4.29,132.09,5.38,131.77,6.47,131.44Z"/><path class="c" d="M38.41,122.81a.6.6,0,0,1-.27.66c-1.57.71-3.09,1.55-4.68,2.23s-3.11,1.27-4.68,1.85c-6,2.21-12.09,4.23-18.12,6.39q-4.56,1.62-9.13,3.28a8.59,8.59,0,0,1-1.53.51v-1.26c.28-.08.56-.21.8-.3l2.5-.85c5.9-2,11.78-4.13,17.66-6.21,2.86-1,5.72-2,8.56-3.05,1.39-.51,2.76-1,4.11-1.63a29,29,0,0,0,3.54-1.73c-.3-1-.49-2.1-.73-3.14s-.43-1.87-.65-2.8l-.57.27c-2.73,1.33-5.56,2.45-8.36,3.6q-5,2.06-10,4c-3,1.2-6,2.37-9,3.49-1.66.61-3.33,1.22-5,1.81-1,.35-1.94.69-2.85,1.06v-1.47c.92-.36,1.87-.67,2.8-1C6,127.4,9.23,126.21,12.43,125c2.09-.8,4.17-1.63,6.25-2.46q5-2,10.06-4.07c1.38-.58,2.77-1.17,4.16-1.79a26.24,26.24,0,0,0,2.39-1.15,1.68,1.68,0,0,0-.07-.24l-1.75-5c-1.17-3.33-2.36-6.65-3.54-10s-2.35-6.66-3.56-10-2.43-6.57-3.63-9.85c0-.07,0-.15-.08-.22-.55-1.25-1-2.57-1.41-3.87q-1.28-3.51-2.54-7c-.47-1.18-.93-2.37-1.4-3.55l-1-2.44-.5-1.22a7.27,7.27,0,0,1-.35-.92l-.25.06-1.07.37-.11,0c.77,2.18,1.51,4.37,2.31,6.54,2.93,7.91,5.83,15.82,9,23.65a.44.44,0,0,1-.53.53c-.74-.31-1.47-.59-2.2-.9l-1-.45c-.21-.09-.63-.33-.82-.13s-.09.6-.1.82c0,.38,0,.77,0,1.15,0,.77-.05,1.53-.07,2.3a.46.46,0,0,1-.9.12Q18.34,91.91,17,88.46q-2.38-6.13-4.87-12.23c-1.61-4-3.28-7.92-4.82-11.91L.9,66.82l-.9.36V65.81l2.33-.94c3.15-1.25,6.31-2.49,9.49-3.66.94-.35,1.87-.7,2.82-1,.46-.15,1.38-.56,1.69,0a.62.62,0,0,1-.13.75l.42,1c.16.35.32.7.47,1.05.35.79.69,1.58,1,2.38q1,2.35,1.86,4.76l.57,1.57q2.67,6.81,5.2,13.67c2.49,6.72,5,13.44,7.44,20.19l1.84,5.1.87,2.47.48,1.36a5,5,0,0,1,.35,1.05.47.47,0,0,1,0,.17c.28,1.15.57,2.29.85,3.43S38.23,121.62,38.41,122.81ZM13.1,62.11c-.76.28-1.51.55-2.26.84l-2.58,1c1,2.15,1.89,4.33,2.79,6.51,3,7.44,5.86,15,8.65,22.52,0-.19,0-.38,0-.58,0-.64-.07-1.59.49-2s1.49,0,2.13.2,1.19.48,1.78.73c-.75-1.89-1.49-3.79-2.25-5.68Q17.25,73.93,13.1,62.11Z"/><path class="c" d="M7.18,85.52c.5-.23.14-1.11-.38-.9-2,.76-3.91,1.6-5.85,2.41l-.95.4v1l1.36-.54C3.3,87.11,5.26,86.35,7.18,85.52Z"/><path class="c" d="M10.84,87.76c.46-.22,1-.47,1.12-1a3.47,3.47,0,0,0-.32-1.81c-.2-.63-.41-1.27-.63-1.89a52.81,52.81,0,0,0-3.2-7.36c-.27-.51-.53-1.19-1.12-1.4s-1.51.26-2.14.48q-2.28.8-4.55,1.65v1.11q1.5-.61,3-1.2L3.93,76l1.85-.64c.22-.07.51-.24.72-.08a2.39,2.39,0,0,1,.45.79,59.32,59.32,0,0,1,3,6.84c.2.55.39,1.1.58,1.66l.24.76a3.62,3.62,0,0,1,.28,1c0,.57-.76.74-1.17.93L8,88.14.93,91.41,0,91.84v1l8.92-4.18Z"/><path class="c" d="M6.19,79.77a26,26,0,0,0-3.43,1.14C1.83,81.26.92,81.62,0,82v1c1.05-.39,2.11-.78,3.17-1.15s2.28-.73,3.37-1.21C7,80.37,6.67,79.67,6.19,79.77Z"/><path class="c" d="M78.17,0q-1.73,5.49-3.44,11c-.94,3-1.89,6-2.83,9-.86,2.76-1.6,5.63-2.71,8.31a.75.75,0,0,1-.1,1.18C66,31.74,62.9,34,59.81,36.23a.72.72,0,0,1-1-.26c-1.33-2.59-2.6-5.2-3.93-7.78a9.84,9.84,0,0,1-1.35-3.31,10.55,10.55,0,0,1,.7-3.83c.33-1.22.67-2.44,1-3.67.13-.51.27-1,.4-1.54s.49-1.16.7-1.79c.75-2.21,1.23-4.55,1.86-6.8q1-3.63,2.08-7.25H62q-1.52,4.72-3,9.47c-.23.74-.45,1.48-.67,2.22,2.14,1,4.29,1.9,6.47,2.78S69.16,16,71.23,17C73,11.31,74.83,5.66,76.66,0ZM67.1,29.16,55.26,25.79c.42,1,1,2,1.51,3.05.95,1.91,2,3.79,2.94,5.69C62.18,32.75,64.63,31,67.1,29.16Zm2.33-6.28a49.83,49.83,0,0,1-6.74-2.15c-1.12-.45-2.23-.93-3.32-1.47a24.42,24.42,0,0,1-2.62-1.4c-.45,1.55-.93,3.1-1.38,4.65A10.25,10.25,0,0,0,55,24.1c4.35,1.26,8.68,2.55,13,3.81.33-1.66.88-3.29,1.36-4.92A.76.76,0,0,1,69.43,22.88Zm1.42-4.69h0a45.94,45.94,0,0,1-6.65-2.58Q61.06,14.26,58,12.75l0,.1c-.15.5-.33,1-.45,1.53s-.11,1.06-.25,1.59c-.05.19-.1.38-.16.58,1,.39,1.86.88,2.79,1.3,1.1.49,2.2,1,3.32,1.41a69.5,69.5,0,0,0,6.63,2.19Z"/><path class="c" d="M63.49,8.72A55.77,55.77,0,0,1,65.63,0h2.59c-.28,1-.57,2-.85,3a.65.65,0,0,1,.23-.13c.27-1,.55-1.91.83-2.86h3.16C71,1.72,70.4,3.44,69.75,5.14a20.16,20.16,0,0,1-2,4.9c-.72,1-2,1.72-3.13.87a2.28,2.28,0,0,1-.86-1.68A.52.52,0,0,1,63.49,8.72Zm4.44-1.93c.23-.54.46-1.08.67-1.63.28-.75.55-1.5.83-2.26q-.33.66-.69,1.32a.63.63,0,0,1-.18.21A4.56,4.56,0,0,1,68,6.48C68,6.58,68,6.69,67.93,6.79ZM66.94,9a.65.65,0,0,1-.39-.26c0,.25,0,.5,0,.75A3.5,3.5,0,0,0,66.94,9Zm-.5-3.78a7.17,7.17,0,0,0,.24.91c.06-.45.12-.9.2-1.35A.63.63,0,0,1,66.44,5.18ZM65.07,6.4l0,0V6.29ZM65,8.86a2.17,2.17,0,0,0,.14.53.91.91,0,0,0,.13.22A5.17,5.17,0,0,1,65,8.86Z"/><path class="c" d="M103.72,25.28a5,5,0,0,1,.66-3.63A6.3,6.3,0,0,1,109,18.59a5.21,5.21,0,0,1,2.17-.79A4.82,4.82,0,0,1,116,21.17a6,6,0,0,1-.84,6,5.25,5.25,0,0,1-5.67,1.56,5.36,5.36,0,0,1-3.4-.73A4.69,4.69,0,0,1,103.72,25.28Zm3.47-2.72a.5.5,0,0,1-.11.19A4.13,4.13,0,0,0,110,27.56a4,4,0,0,0,4.57-2,4.89,4.89,0,0,0-.16-4.58,3.8,3.8,0,0,0-1.75-1.68,3.18,3.18,0,0,0-2.13-.06A5.18,5.18,0,0,0,107.19,22.56Zm-2.42,2.88a3.82,3.82,0,0,0,1.36,1.46,5.59,5.59,0,0,0,1.47.68,5.26,5.26,0,0,1-1.39-5,.42.42,0,0,1,0-.27,6.56,6.56,0,0,1,1.48-2.63,5.83,5.83,0,0,0-3,3.62A3.2,3.2,0,0,0,104.77,25.44Z"/><path class="c" d="M126.73,1.91A18.05,18.05,0,0,1,127.56,0h-1.11a12.77,12.77,0,0,0-.58,1.24,20.47,20.47,0,0,0-1.11,11.27,11.2,11.2,0,0,1-1.43-4.1A10.84,10.84,0,0,1,125.62.35l.31-.35h-1.71l0,.06a11.57,11.57,0,0,0-1.85,3.86,12.19,12.19,0,0,0,.88,8.58c1.3,2.64,3.36,4.95,3.82,7.93a11.21,11.21,0,0,1-1.81,7.5,16.69,16.69,0,0,1-12.75,7.42,21.46,21.46,0,0,1-7.1-.55.32.32,0,0,0-.26-.26,13.89,13.89,0,0,1-5.61-3.12,18.65,18.65,0,0,1-4.06-5.2,29.64,29.64,0,0,1-2.53-6.68,33.06,33.06,0,0,1-1.09-7.13A23.36,23.36,0,0,1,94.85,0H93.73a20,20,0,0,0-1.58,3.65,24.7,24.7,0,0,0-1.07,7.24,36.72,36.72,0,0,0,2.85,14.49,19.38,19.38,0,0,0,4,6.08A21.43,21.43,0,0,1,89.59,19a27.25,27.25,0,0,1,.93-16.15c.38-1,.81-1.94,1.27-2.89h-.91a24.71,24.71,0,0,0-2.62,6.74,27.35,27.35,0,0,0-.64,8.46,24,24,0,0,0,6.82,15.11,23.38,23.38,0,0,0,14.12,6.4,19.64,19.64,0,0,0,14.82-4.53,15.67,15.67,0,0,0,4.59-7,11.3,11.3,0,0,0-.8-8.44l-.32-.59a20.66,20.66,0,0,1-.12-14.19Z"/><path class="c" d="M102.56,14.45A4.72,4.72,0,0,1,99,14.26a6,6,0,0,1-3-6.78A6.48,6.48,0,0,1,98,4.2a5.87,5.87,0,0,1,2.87-1.51,5.87,5.87,0,0,1,2.6-.51,5.77,5.77,0,0,1,4.93,3,6.66,6.66,0,0,1-.89,7A5.77,5.77,0,0,1,102.56,14.45Zm-2.27-.89-.11-.07a6.78,6.78,0,0,1-2.06-7.37.54.54,0,0,1-.06-.5,5,5,0,0,1,.5-.94,5.42,5.42,0,0,0-.6.67,5.66,5.66,0,0,0-1.11,4.07A5,5,0,0,0,100.29,13.56Zm6.8-3.05a5,5,0,0,0-.28-5.35,4.61,4.61,0,0,0-4-1.62,4.21,4.21,0,0,0-3.5,2.59.53.53,0,0,1-.31.28,6.66,6.66,0,0,0,.36,3.79A5,5,0,0,0,101.7,13C103.8,13.9,106.13,12.34,107.09,10.51Z"/><path class="c" d="M182.46,19.69Q180,32.55,176.78,45.24a2.86,2.86,0,0,1,.15.41,2.15,2.15,0,0,1-.53,1.92,26.45,26.45,0,0,1-2,1.85c-1.37,1.27-2.72,2.54-4.07,3.82l-1.05,1a5.54,5.54,0,0,1-.91.77c-.78.42-1.36-.16-1.84-.73a18.71,18.71,0,0,1-4-10.68.55.55,0,0,1-.07-1,41.78,41.78,0,0,1,.34-7.37c.48-3.68,1.21-7.33,1.86-11s1.34-7.44,2-11.16c.79-4.37,1.61-8.73,2.43-13.1h1.1Q169,7.19,167.8,14.36c-.6,3.42-1.19,6.84-1.8,10.25s-1.25,6.76-1.75,10.16a41.68,41.68,0,0,0-.48,7.59,4.4,4.4,0,0,1,3.07,1.15,2.39,2.39,0,0,1,.21-.34q1.11-5.55,2.14-11.12,1.91-10.18,3.49-20.44c.59-3.86,1.11-7.74,1.64-11.61h1L175,2.74q-1.4,10.35-3.19,20.63-1.65,9.48-3.7,18.89a2.79,2.79,0,0,1,1.73-.29,2.88,2.88,0,0,1,2.27,2.33l.06,0c.62-3.85,1.27-7.71,1.91-11.57,1.14-6.87,2.33-13.74,3.47-20.62.56-3.43,1.1-6.86,1.69-10.28.1-.6.21-1.19.31-1.79h1c-.17,1.05-.32,2.11-.5,3.16q-1.71,10.37-3.44,20.72c-1.1,6.66-2.22,13.32-3.4,20l.4-.1a3.21,3.21,0,0,1,2.36.53q1.56-6.45,2.93-12.94,2.61-12.39,4.61-24.88.53-3.23,1-6.45h1.13C184.75,6.59,183.71,13.16,182.46,19.69Zm-16.63,30.6a.62.62,0,0,1-.32-.07.18.18,0,0,1-.07,0l.07.16.18,0h.13ZM166.5,52l-.11,0a1,1,0,0,0,.08.14Zm.18-.64,0-.16-.36,0a.09.09,0,0,0,0,.05l0,.16h.12l.29.05Zm-.18-1a0,0,0,0,1,0,0h0v0Zm1.05,3.13a.27.27,0,0,1-.12.06l.09.13v-.06A.61.61,0,0,0,167.55,53.49Zm.74.27h0Zm0-3.34h-.22a.14.14,0,0,1,0,.06h.18Zm1.17.93h0s0,.11,0,.15a1.13,1.13,0,0,1,0,.18.19.19,0,0,0,0-.08C169.43,51.52,169.46,51.44,169.48,51.35Zm.21-.77-.21-.08a.41.41,0,0,1,0,.11l.19,0Zm1.17.78h-.05s0,0,0,0a7.51,7.51,0,0,0-.72.66l0,0Zm4.85-5.87c-.93-1.36-2.74-.53-3.81.15-.42.27-.85-.17-.78-.59a1.88,1.88,0,0,0-1.53-2.11,1.93,1.93,0,0,0-2.05,1.68c-.07.47-.72.43-.93.12a3.24,3.24,0,0,0-2.77-1.32,21,21,0,0,0,1.26,5.93,8,8,0,0,1,3.38-.07,7.21,7.21,0,0,1,3.16,1.36l2.07-1.93c.59-.56,1.2-1.1,1.76-1.68A1.13,1.13,0,0,0,175.71,45.49Z"/><path class="c" d="M107.27,116.76c-2.47,5.82-4.7,11.75-6.9,17.68s-4.33,12-6.24,18.11a.65.65,0,0,0,.3.73c7.86,3.5,15.82,6.64,24,9.36s16.5,5.2,24.84,7.5c4.67,1.29,9.34,2.54,14,3.8a.75.75,0,0,0,.73-1.25q-19.06-21.93-38.39-43.64-5.44-6.14-10.92-12.25c-.5-.55-1.29.26-.81.81q19,22,38.16,43.87c3.61,4.11,7.27,8.17,10.9,12.27l.73-1.25c-16.53-4.27-33.11-8.57-49.08-14.67-4.56-1.74-9.09-3.57-13.5-5.67l.3.74c2.06-6,4.11-12,6.25-17.94s4.45-11.84,6.68-17.76c.22-.6-.79-1-1-.44Z"/><path class="c" d="M110.46,132.66c-2.09,4.94-4.21,9.86-6.19,14.85a.57.57,0,0,0,.26.64c4,1.89,8.16,3.38,12.26,4.95,5.46,2.07,10.81,4.43,16.22,6.61q1.83.75,3.66,1.44c.58.22,1-.59.58-1-6.52-6.63-12.85-13.45-19.25-20.2l-6.74-7.05c-.56-.58-1.42.29-.88.88,7.78,8.4,15.78,16.59,23.74,24.82.77.8,1.54,1.58,2.29,2.38l.58-1q-4.92-2-9.88-3.86c-5.66-2.13-11.22-4.46-16.8-6.76-1.74-.71-3.52-1.39-5.2-2.23l.26.64c2.06-4.9,4-9.85,5.92-14.8.19-.47-.63-.82-.83-.35Z"/><path class="c" d="M70.57,143.51c-1.44.5-2.82,1.16-4.2,1.8s-2.78,1.32-4.16,2-2.74,1.41-4.09,2.13c-.58.32-1.27.65-1.19,1.42a2.56,2.56,0,0,0,.34.88l.56,1.14c.69,1.42,1.37,2.85,2.07,4.26a1.12,1.12,0,0,0,1.63.56l2.15-.95q4.29-1.92,8.53-4c.68-.32,1.54-.63,1.51-1.54a3.38,3.38,0,0,0-.39-1.13l-.54-1.25c-.73-1.67-1.44-3.35-2.22-5-.27-.56-1.25-.16-1,.43q.7,1.83,1.47,3.63l.74,1.74c.13.31.26.63.4.94a2,2,0,0,1,.28.85l.09-.32c-.08.17-.27.22-.44.3l-.75.36-1.6.76L66.62,154c-1,.47-2,.92-3.07,1.38l-1.54.67-.69.3a3.76,3.76,0,0,0-.39.17c.21.16.26.17.16,0l-.08-.15-1.58-3.09-.73-1.43-.38-.75a1.86,1.86,0,0,1-.18-.34c0-.07,0-.06,0,0l.16-.1c1.9-1.1,3.87-2.09,5.83-3.08,2.25-1.14,4.57-2.15,6.78-3.37.4-.22.13-.91-.32-.76Z"/><path class="c" d="M71.14,146.11c1.6-.5,3.17-1.1,4.71-1.75.37-.15.73-.34,1.11-.46s.46,0,.6.33c.31.73.55,1.5.84,2.24l.27-.65c-2.1.92-4.22,1.9-6.24,3-.6.32-.07,1.2.53.91,1-.5,2-1,3-1.5s2.08-.9,3.12-1.33a.6.6,0,0,0,.41-.71,25.27,25.27,0,0,0-1-2.59,1.62,1.62,0,0,0-2.18-.69,42.5,42.5,0,0,0-5.51,2.47.41.41,0,0,0,.32.75Z"/><path class="c" d="M58.12,151.33c-2.65.64-5.25,1.55-7.85,2.39l-7.81,2.54c-5.15,1.68-10.29,3.37-15.45,5-2.93.94-5.86,1.9-8.8,2.82a.56.56,0,0,0-.33.82c.66,1.21,1.32,2.42,2,3.62a.62.62,0,0,0,.68.28Q35.28,163.08,50,157.33l8.28-3.21c.62-.24.35-1.24-.27-1q-14.74,5.65-29.49,11.33l-8.28,3.21.68.27c-.68-1.2-1.39-2.38-2.08-3.57l-.33.82c10.32-3.47,20.72-6.73,31.08-10.08,2.93-.94,5.9-1.82,8.75-3a.41.41,0,0,0-.22-.79Z"/><path class="c" d="M59.16,155.17c-4,3.63-7.94,7.39-11.93,11.05s-7.95,7.19-12,10.71q-3.45,3-7,5.89a.57.57,0,0,0-.08.69,6.7,6.7,0,0,0,2.65,2.83.59.59,0,0,0,.7-.09q11.13-11.64,23-22.52c2.22-2,4.47-4,6.69-6.08.52-.49-.25-1.24-.78-.78-4.08,3.49-8,7.17-11.88,10.87S40.82,175.17,37,179q-3.19,3.21-6.32,6.46l.69-.09a5.59,5.59,0,0,1-2.26-2.41l-.09.68c8.18-7,16.27-14.15,24.18-21.47,2.23-2.06,4.44-4.15,6.57-6.32.43-.43-.21-1.05-.65-.66Z"/><path class="c" d="M18.79,164.77a16.23,16.23,0,0,0-2.45.78,4.1,4.1,0,0,0-2,1.1,4.47,4.47,0,0,0-.48.92,5.59,5.59,0,0,1-.54.91,6.66,6.66,0,0,1-1.6,1.49.47.47,0,0,0-.17.63,1.41,1.41,0,0,0,1.61.49,16,16,0,0,0,2.38-.92,32,32,0,0,0,4.62-2.38.56.56,0,0,0-.57-1c-1.25.71-2.5,1.43-3.8,2-.64.3-1.29.58-1.94.85-.21.09-1.36.69-1.5.43-.06.21-.11.42-.17.63a7.54,7.54,0,0,0,2.73-3.16,1.43,1.43,0,0,1,.65-.7,10.9,10.9,0,0,1,1.12-.45,15.87,15.87,0,0,0,2.4-1c.37-.21.11-.74-.28-.67Z"/><path class="c" d="M33.44,178.8a1.79,1.79,0,0,0-1,1.66,1.74,1.74,0,0,0,1.22,1.62,1.82,1.82,0,0,0,2-.56,3,3,0,0,0,.5-2.35,2.16,2.16,0,0,0-1.31-1.69,2.32,2.32,0,0,0-2,.17,2.86,2.86,0,0,0-.59,4.11,2.65,2.65,0,0,0,2.11,1.15,2.72,2.72,0,0,0,2.16-1.19,3.32,3.32,0,0,0,.47-2.53,2.38,2.38,0,0,0-1.65-1.8,3.4,3.4,0,0,0-4.17,1.42A2.65,2.65,0,0,0,31,181a3,3,0,0,0,1.67,1.63,2.39,2.39,0,0,0,2.59-.23,3,3,0,0,0,.81-2.45c0-.71-.1-2-.94-2.3-1-.33-1.21,1.36-1.24,2a5.27,5.27,0,0,0,.14,1.37.51.51,0,0,0,.48.37.52.52,0,0,0,.48-.37,3.26,3.26,0,0,0,0-2.36.47.47,0,0,0-.91,0,3.61,3.61,0,0,0,0,2.53.48.48,0,0,0,.78.2,2.26,2.26,0,0,0-.41-3.23,1.08,1.08,0,0,0-.9-.3,1,1,0,0,0-.66.62,3.81,3.81,0,0,0-.36,1.79c0,.6.35,1.22,1.05,1.17a1.24,1.24,0,0,0,1.09-1.15,2,2,0,0,0-.26-1,1.55,1.55,0,0,0-.59-.72.67.67,0,0,0-.87.22,1.61,1.61,0,0,0-.16.92c0,.61.43,1.75,1.27,1.31a1,1,0,0,0,.5-.85c0-.33-.23-.6-.22-.9a.53.53,0,0,0-1-.27,1.57,1.57,0,0,0,.14,1.91.52.52,0,0,0,.88-.23,2.55,2.55,0,0,0-.21-1.51.55.55,0,0,0-1,.13,2.36,2.36,0,0,0,0,1.53.61.61,0,0,0,1.11-.45.52.52,0,0,0-1,.28v0l.06-.4,0,0,.19-.19,0,0,.4,0h0l.23.14,0-.05.13.24a1.85,1.85,0,0,1,0-.84l-1,.13a1.24,1.24,0,0,1,.13.68l.87-.23a.53.53,0,0,1,0-.64l-1-.26a1.65,1.65,0,0,0,.14.65,2.49,2.49,0,0,1,.11.29c0-.19,0,0,0,0a.26.26,0,0,1,.33,0l-.06-.11a1.47,1.47,0,0,1-.08-.3,1.38,1.38,0,0,1,0-.35.7.7,0,0,1,0-.14c0-.08,0-.07,0,0l-.21.13c-.31.13-.18-.17-.15,0s.09.17.12.25a1.38,1.38,0,0,1,.13.39.36.36,0,0,1,0,.26.32.32,0,0,1-.13.1h0a1.33,1.33,0,0,1-.05-.19,2.43,2.43,0,0,1,.07-.93,2.86,2.86,0,0,1,.15-.41s.09-.13.08-.15-.06,0-.06,0l.1,0L34,179a2.71,2.71,0,0,1,.24.35,1.14,1.14,0,0,1,0,1.41l.78.2a2.79,2.79,0,0,1,0-2h-.91a2.52,2.52,0,0,1,0,1.85h1a4.06,4.06,0,0,1,0-2,.73.73,0,0,1,.06-.21s0-.16,0-.12l-.33.06a.17.17,0,0,1,.06.08s0,.07.05.12a2.51,2.51,0,0,1,.07.87,2.8,2.8,0,0,1-.34,1.73,1.15,1.15,0,0,1-1.28.32,2.25,2.25,0,0,1-1.21-.74,1.48,1.48,0,0,1-.2-1.35,2.16,2.16,0,0,1,2.34-1.4,1.91,1.91,0,0,1,1.4.59,2.08,2.08,0,0,1,.15,1.53,1.58,1.58,0,0,1-2.13,1.3,2.07,2.07,0,0,1-1-2.58,1.37,1.37,0,0,1,2.09-.53c.64.67.52,2.49-.52,2.67a.92.92,0,0,1-1-.55,1.05,1.05,0,0,1,.46-1.21c.4-.24.05-.78-.36-.61Z"/><path class="c" d="M29,184a5.84,5.84,0,0,0-1,.84l-.9.92-.86.9c-.15.16-.27.33-.41.49l-.48.49c-.37.36.18.89.56.56.62-.55,1.24-1.11,1.85-1.68l.87-.84c.3-.3.63-.59.9-.92a.4.4,0,0,0-.57-.57c-.32.27-.6.58-.89.87l-.9.87c-.6.58-1.2,1.15-1.82,1.71l.56.56.47-.45c.15-.14.33-.26.49-.41l.94-.87q.46-.42.9-.87a5.78,5.78,0,0,0,.88-1A.42.42,0,0,0,29,184Z"/><path class="c" d="M60.58,149.52c.51,1,1,2,1.48,3,.23.48.46,1,.68,1.46s.43,1.07.7,1.57a.53.53,0,0,0,1-.41c-.18-.54-.46-1.07-.69-1.6s-.47-1-.7-1.52c-.49-1-1-2-1.55-3-.32-.58-1.19-.07-.89.52Z"/><path class="c" d="M66.12,146a5.8,5.8,0,0,0,.76,1.78c.28.57.54,1.16.8,1.75.5,1.17.91,2.36,1.38,3.55a.65.65,0,0,0,.76.43.63.63,0,0,0,.43-.76,27.17,27.17,0,0,0-1.45-3.73c-.26-.59-.54-1.16-.83-1.73a4.75,4.75,0,0,0-1.1-1.72.5.5,0,0,0-.75.43Z"/><path class="c" d="M156.94,125.82a31.44,31.44,0,0,1-2.59-5.07c-.61-1.77-1.3-4-.51-5.84.68-1.57,2.48-2.44,3.92-1.26s1.51,3.54,1.54,5.36a.79.79,0,0,0,1.17.68,10.31,10.31,0,0,1,6.26-1.88,4.07,4.07,0,0,1,2.71.85,2.66,2.66,0,0,1,.2,3.16c-1,1.84-3.5,2.8-5.42,3.35a15.74,15.74,0,0,1-7.09.36c-.83-.14-1.19,1.12-.35,1.27a16.84,16.84,0,0,0,8.65-.61c2.33-.82,5.15-2.22,5.79-4.84s-1.23-4.45-3.69-4.82a11.13,11.13,0,0,0-7.85,1.81l1.18.67c0-2.32-.24-4.84-2.16-6.44a3.89,3.89,0,0,0-5.46.48c-1.7,1.9-1.55,4.57-.86,6.86a14.75,14.75,0,0,0,3.76,6.53.51.51,0,0,0,.8-.62Z"/><path class="c" d="M61,55.06a4.79,4.79,0,0,0-5.42,1.41,3.09,3.09,0,0,0,1.11,4.72c1.75.78,4.52.57,5.73-1.1.7-1,0-1.93-.46-2.84-.53-1.1-1-2.23-1.51-3.34s-1.19-2.42-1.85-3.6-1.56-2.41-2.32-3.63l-.55,1,7.47-.54-.6-.46c.27,1.42.54,2.85.8,4.27.15-.28.31-.56.47-.83a27.41,27.41,0,0,1-5.48.7.56.56,0,0,0,0,1.12,19.14,19.14,0,0,0,5.84-.51.71.71,0,0,0,.48-.84c-.32-1.41-.61-2.83-.91-4.24a.64.64,0,0,0-.6-.46q-3.73.24-7.47.51a.64.64,0,0,0-.55,1c1.2,1.91,2.19,4,3.28,6,.54,1,1.1,2,1.62,3,.26.52.52,1,.74,1.58a7.4,7.4,0,0,1,.34.89c.08.25.13.24-.06.41-.9.85-4.4,1.13-4.34-.69.06-2,2.65-2,4.07-2.12A.64.64,0,0,0,61,55.06Z"/><path class="c" d="M117.93,84.27c-.74-1.55-2-3.25-3.89-3.32s-3.94,1.74-3.58,3.76c.38,2.21,3.16,3.48,5.19,3.19,1-.13,1.87-.51,1.95-1.61.09-1.34.08-2.71.11-4.05,0-1.53,0-3-.08-4.58s-.37-3.13-.54-4.7l-.81.61c2.31.93,4.65,1.81,7,2.75l-.43-.77c-.38,1.4-.75,2.8-1.14,4.19l.84-.48a25.72,25.72,0,0,1-5.26-1.73c-.64-.3-1.21.63-.57,1a19.09,19.09,0,0,0,5.47,2.08.7.7,0,0,0,.84-.48c.33-1.41.68-2.81,1-4.22a.64.64,0,0,0-.44-.76c-2.32-.91-4.63-1.86-6.95-2.78a.64.64,0,0,0-.81.62c.3,2.56.28,5.18.43,7.75.07,1.2.13,2.41.13,3.61,0,.37,0,.74,0,1.11,0,.19,0,.66-.08.78s-1,.05-1.27,0a3.68,3.68,0,0,1-2.48-1.39,1.32,1.32,0,0,1,.78-1.9c1.49-.7,2.73,1.25,3.64,2.12a.64.64,0,0,0,1-.77Z"/><path class="c" d="M158,180c-4.61-1.81-10.29.81-12.25,5.26a.77.77,0,0,0,.46,1.13,10.73,10.73,0,0,0,12.09-5.44c.3-.61-.6-1.16-.93-.54a9.3,9.3,0,0,1-10.75,4.5c.15.38.3.75.46,1.13A9.55,9.55,0,0,1,157.68,181a.51.51,0,0,0,.27-1Z"/><path class="c" d="M47.31,5.78c-3-.18-5.14,2.89-6.48,5.2-.38.66-.77,1.62,0,2.17a3.19,3.19,0,0,0,2.26.11,6.78,6.78,0,0,0,3.69-2.14,6.33,6.33,0,0,0,1.65-4.47.53.53,0,0,0-1.06,0,5.77,5.77,0,0,1-3.73,5.22,4.68,4.68,0,0,1-1.69.31c-.1,0-.21,0-.31,0-.26,0,0,0,0,.07.11-.23.21-.47.34-.7a14.75,14.75,0,0,1,2.11-3,5.24,5.24,0,0,1,3.21-1.74.5.5,0,0,0,0-1Z"/><path class="c" d="M13.18,182.35c.69-2.11,1.49-4.17,2.31-6.22l-1.26.16,1.61,3.19c.54,1.07,1.13,2.1,1.67,3.16l.65-.85a49,49,0,0,1-7.06-3.54c0,.35-.09.71-.14,1.07,1.26-.33,2.53-.61,3.8-.87s2.56-.6,3.85-.73c-.09-.33-.17-.65-.26-1a19.31,19.31,0,0,0-1.5,1.37c-.5.46-1,.91-1.53,1.36-1,.89-2.08,1.76-3.15,2.6l.88.68c.68-1.4,1.33-2.83,2.06-4.2h-.9c.32.64.64,1.28,1,1.92l.65-.85a3,3,0,0,1-1.25-.93c-.38-.44-1.23,0-1,.59a3.48,3.48,0,0,0,2.65,2.21c.34.05.78-.15.74-.57a5.29,5.29,0,0,0-1.51-3.37c-.45-.44-1.31.16-.9.7a10.2,10.2,0,0,1,1.51,3.3l1-.57a12.35,12.35,0,0,0-4.69-2.45v1.36a24.35,24.35,0,0,1,3.25-.77c1.05-.09.7-1.68-.18-1.35a10.93,10.93,0,0,1-1.7.46c-.58.11-1.17.17-1.75.3a.71.71,0,0,0,0,1.36,13.27,13.27,0,0,1,4.37,2c.44.32,1-.21.85-.66a10.94,10.94,0,0,0-1.64-3.57l-.9.69a4.22,4.22,0,0,1,1.15,2.56l.74-.56a2.32,2.32,0,0,1-1.8-1.4l-1,.59a4,4,0,0,0,1.8,1.18.59.59,0,0,0,.66-.85c-.35-.62-.71-1.24-1.07-1.86a.52.52,0,0,0-.9,0c-.66,1.41-1.42,2.78-2.13,4.17-.23.44.28,1.13.77.76,1.08-.82,2.14-1.68,3.16-2.58.51-.46,1-.91,1.51-1.38A13.24,13.24,0,0,0,19,177.56c.3-.37,0-1-.51-.87a36.82,36.82,0,0,1-3.89.82c-1.3.26-2.61.49-3.93.68-.56.08-.49.81-.14,1.07a28.64,28.64,0,0,0,7.35,3.64c.51.18.84-.43.64-.84-.51-1.08-1-2.18-1.5-3.25s-1.05-2.14-1.57-3.21c-.3-.6-1.06-.33-1.26.16A63.51,63.51,0,0,0,12,182c-.24.77.95,1.09,1.19.33Z"/><path class="c" d="M168,66.37c1.51-1.62,3.1-3.15,4.72-4.66l-1.18-.49.11,3.58c0,1.19.16,2.38.19,3.57l1-.4a49.61,49.61,0,0,1-4.91-6.19l-.66.86c1.31.24,2.61.53,3.9.84a38.75,38.75,0,0,1,3.85,1v-1c-.67.15-1.33.43-2,.64s-1.23.38-1.85.55c-1.29.36-2.59.7-3.89,1l.54.94c1.18-1,2.33-2,3.54-2.86l-.79-.45c0,.72,0,1.43.07,2.15l1-.41a2.91,2.91,0,0,1-.77-1.35.6.6,0,0,0-1.18.16,3.49,3.49,0,0,0,1.56,3.08.6.6,0,0,0,.86-.35,5.25,5.25,0,0,0,0-3.56.58.58,0,0,0-1.11.3,10.11,10.11,0,0,1,0,3.47l1.06-.14a12.07,12.07,0,0,0-3.13-4.06l-.69,1.18c.58.12,1.17.17,1.75.28a10.88,10.88,0,0,1,1.7.44c.88.32,1.25-1.27.19-1.34a24.56,24.56,0,0,1-3.27-.75c-.62-.13-1.27.7-.68,1.18A13.35,13.35,0,0,1,171,67.22a.59.59,0,0,0,1.07-.14,11.28,11.28,0,0,0,0-3.93L171,63.3a4.36,4.36,0,0,1-.06,2.94l.86-.35a2.31,2.31,0,0,1-.95-2.06l-1.18.16a3.85,3.85,0,0,0,1.11,1.85.59.59,0,0,0,1-.41l-.18-2.15a.54.54,0,0,0-.9-.37c-1.19,1-2.46,1.93-3.69,2.89-.48.37.06,1,.55.93q2-.44,4-1c.64-.19,1.28-.39,1.91-.6a14.59,14.59,0,0,0,2-.7.53.53,0,0,0-.12-1,37,37,0,0,1-3.88-.9c-1.29-.31-2.57-.65-3.84-1a.59.59,0,0,0-.66.86A28.49,28.49,0,0,0,172,68.78a.58.58,0,0,0,1-.41c0-1.19,0-2.38,0-3.57s-.05-2.38-.07-3.58a.7.7,0,0,0-1.18-.48c-1.62,1.49-3.15,3.11-4.62,4.76-.53.59.33,1.46.88.87Z"/></pattern></defs><title>pattern</title><rect class="d" width="1138.67" height="2436" rx="218.07"/></svg>